<svg height="496pt" viewBox="0 0 496 496" width="496pt" xmlns="http://www.w3.org/2000/svg"><path d="m288 352c0-22.054688-17.945312-40-40-40s-40 17.945312-40 40 17.945312 40 40 40 40-17.945312 40-40zm-40 24c-13.230469 0-24-10.769531-24-24s10.769531-24 24-24 24 10.769531 24 24-10.769531 24-24 24zm0 0"/><path d="m442.984375 433.671875-26.984375-7.703125v-2.136719c9.96875-7.511719 16-19.328125 16-31.832031v-14.335938c0-21.503906-16.007812-39.734374-36.441406-41.503906-11.246094-1-22.351563 2.808594-30.582032 10.351563-8.25 7.558593-12.976562 18.3125-12.976562 29.488281v16c0 12.503906 6.03125 24.320312 16 31.832031v2.136719l-26.992188 7.703125c-8.582031 2.457031-15.855468 7.679687-20.976562 14.511719-5.039062-6.800782-12.152344-11.953125-20.414062-14.304688l-19.625-7.414062v-4.578125c.679687-.488281 1.359374-.984375 2.03125-1.503907l7.152343 3.585938 30.800781-30.808594-6.113281-12.160156c.441407-.984375.847657-1.96875 1.242188-2.953125l12.894531-4.269531v-43.546875l-12.894531-4.277344c-.394531-.984375-.808594-1.976563-1.242188-2.953125l6.113281-12.167969-30.800781-30.800781-12.167969 6.113281c-.976562-.441406-1.96875-.847656-2.953124-1.242187l-4.277344-12.902344h-43.546875l-4.277344 12.894531c-.984375.394531-1.976563.808594-2.953125 1.242188l-12.167969-6.113281-30.800781 30.800781 6.113281 12.167969c-.441406.976562-.847656 1.96875-1.242187 2.953124l-12.902344 4.277344v43.546875l12.894531 4.277344c.394531.984375.808594 1.96875 1.242188 2.953125l-6.113281 12.160156 30.800781 30.808594 7.152343-3.59375c.664063.519531 1.34375 1.023438 2.023438 1.503906v4.59375l-18.992188 7.191406c-8.601562 2.464844-15.886718 7.703126-21.007812 14.558594-5.128906-6.855468-12.40625-12.101562-21.015625-14.558594l-26.984375-7.695312v-2.136719c9.96875-7.511719 16-19.328125 16-31.832031v-14.335938c0-21.503906-16.007812-39.734374-36.441406-41.503906-11.230469-1-22.351563 2.808594-30.582032 10.351563-8.25 7.558593-12.976562 18.3125-12.976562 29.488281v16c0 12.503906 6.03125 24.320312 16 31.832031v2.136719l-26.992188 7.703125c-17.078124 4.886719-29.007812 20.703125-29.007812 38.472656v23.855469h448v-23.855469c0-17.769531-11.929688-33.585937-29.015625-38.472656zm-274.984375 46.328125h-128v-7.855469c0-10.65625 7.160156-20.152343 17.40625-23.082031l38.59375-11.03125v-23.070312l-3.976562-2.3125c-7.527344-4.382813-12.023438-12.105469-12.023438-20.648438v-16c0-6.710938 2.832031-13.160156 7.792969-17.695312 5.007812-4.59375 11.558593-6.800782 18.382812-6.207032 12.238281 1.0625 21.824219 12.292969 21.824219 25.566406v14.335938c0 8.542969-4.496094 16.265625-12.023438 20.648438l-3.976562 2.3125v23.070312l38.585938 11.03125c10.253906 2.929688 17.414062 12.425781 17.414062 23.082031zm144 0h-128v-7.855469c0-10.65625 7.160156-20.152343 18.039062-23.289062l29.960938-11.328125v-24.625l-3.992188-2.300782c-2.519531-1.464843-5.007812-3.335937-7.390624-5.578124l-4.074219-3.839844-6.574219 3.304687-14.457031-14.464843 4.503906-8.96875-1.855469-3.613282c-1.398437-2.714844-2.542968-5.472656-3.441406-8.210937l-1.238281-3.855469-9.480469-3.152344v-20.453125l9.488281-3.144531 1.238281-3.855469c.890626-2.746093 2.042969-5.503906 3.441407-8.210937l1.855469-3.605469-4.503907-8.984375 14.457031-14.457031 8.984376 4.503906 3.605468-1.855469c2.714844-1.398437 5.472656-2.542968 8.210938-3.441406l3.855468-1.238281 3.144532-9.480469h20.453125l3.144531 9.488281 3.855469 1.238281c2.746093.890626 5.503906 2.042969 8.210937 3.441407l3.605469 1.855469 8.984375-4.503907 14.457031 14.457031-4.503906 8.984376 1.855469 3.605468c1.398437 2.714844 2.542968 5.472656 3.441406 8.210938l1.238281 3.855468 9.480469 3.144532v20.453125l-9.488281 3.144531-1.238281 3.855469c-.890626 2.746093-2.042969 5.503906-3.441407 8.210937l-1.855469 3.613282 4.503907 8.96875-14.457031 14.464843-6.574219-3.304687-4.074219 3.839844c-2.382812 2.242187-4.871094 4.128906-7.414062 5.59375l-3.992188 2.3125.03125 24.597656 30.574219 11.527344c10.265625 2.9375 17.425781 12.433593 17.425781 23.089843zm144 0h-128v-7.855469c0-10.65625 7.160156-20.152343 17.40625-23.082031l38.59375-11.03125v-23.070312l-3.976562-2.3125c-7.527344-4.382813-12.023438-12.105469-12.023438-20.648438v-16c0-6.710938 2.832031-13.160156 7.792969-17.695312 5.007812-4.59375 11.574219-6.800782 18.382812-6.207032 12.238281 1.0625 21.824219 12.292969 21.824219 25.566406v14.335938c0 8.542969-4.496094 16.265625-12.023438 20.648438l-3.976562 2.3125v23.070312l38.585938 11.03125c10.253906 2.929688 17.414062 12.425781 17.414062 23.082031zm0 0"/><path d="m160 136c0-13.230469-10.769531-24-24-24s-24 10.769531-24 24 10.769531 24 24 24 24-10.769531 24-24zm-32 0c0-4.414062 3.585938-8 8-8s8 3.585938 8 8-3.585938 8-8 8-8-3.585938-8-8zm0 0"/><path d="m456 96h-152v16h-34.246094c-11.386718-63.566406-66.960937-112-133.753906-112-74.992188 0-136 61.007812-136 136s61.007812 136 136 136c66.792969 0 122.367188-48.433594 133.753906-112h34.246094v16h152c22.054688 0 40-17.945312 40-40s-17.945312-40-40-40zm-320 160c-66.167969 0-120-53.832031-120-120s53.832031-120 120-120 120 53.832031 120 120-53.832031 120-120 120zm135.59375-112c.160156-2.664062.40625-5.296875.40625-8s-.246094-5.335938-.40625-8h32.40625v16zm184.40625 16h-136v-48h136c13.230469 0 24 10.769531 24 24s-10.769531 24-24 24zm0 0"/><path d="m464 136c0 4.417969-3.582031 8-8 8s-8-3.582031-8-8 3.582031-8 8-8 8 3.582031 8 8zm0 0"/><path d="m136 32c-24.550781 0-48.414062 8.769531-67.183594 24.679688l10.34375 12.199218c13.832032-11.726562 30.9375-18.855468 48.839844-20.503906v31.625h16v-31.59375c42.144531 3.824219 75.777344 37.449219 79.59375 79.59375h-31.59375v16h31.625c-1.648438 17.902344-8.777344 35.007812-20.503906 48.839844l12.199218 10.34375c15.910157-18.769532 24.679688-42.632813 24.679688-67.183594 0-57.34375-46.65625-104-104-104zm0 0"/><path d="m144 223.625v-31.625h-16v31.59375c-42.144531-3.816406-75.777344-37.449219-79.59375-79.59375h31.59375v-16h-31.625c1.648438-17.902344 8.777344-35.007812 20.503906-48.839844l-12.199218-10.34375c-15.910157 18.769532-24.679688 42.632813-24.679688 67.183594 0 57.34375 46.65625 104 104 104 24.550781 0 48.414062-8.769531 67.183594-24.679688l-10.34375-12.199218c-13.832032 11.726562-30.9375 18.855468-48.839844 20.503906zm0 0"/></svg>