<svg height="512pt" viewBox="0 0 512 512.00007" width="512pt" xmlns="http://www.w3.org/2000/svg"><path d="m512 256c0 141.386719-114.613281 256-256 256-7.09375 0-14.128906-.292969-21.074219-.855469-6.207031-.503906-12.339843-1.234375-18.414062-2.175781-.898438-.132812-1.796875-.28125-2.695313-.425781-5.871094-.972657-11.679687-2.152344-17.417968-3.523438-41.324219-9.851562-78.753907-29.726562-109.589844-56.90625-1.472656-1.292969-2.933594-2.609375-4.375-3.9375-1.820313-1.683593-3.617188-3.386719-5.382813-5.121093-1.398437-1.367188-2.789062-2.757813-4.160156-4.15625-1.734375-1.777344-3.4375-3.574219-5.117187-5.402344-1.339844-1.441406-2.65625-2.894532-3.929688-4.367188-1.660156-1.863281-3.269531-3.753906-4.859375-5.664062-1.265625-1.515625-2.507813-3.050782-3.71875-4.597656-24.734375-31.203126-42.351563-68.316407-50.375-108.867188-.566406-2.84375-1.078125-5.695312-1.546875-8.570312-.492188-2.976563-.929688-5.976563-1.316406-8.996094-.398438-3.132813-.730469-6.28125-1.015625-9.445313-.667969-7.574219-1.011719-15.246093-1.011719-22.988281 0-79.976562 36.675781-151.382812 94.125-198.320312 3.425781-2.8125 6.925781-5.527344 10.5-8.152344 42.402344-31.136719 94.730469-49.527344 151.375-49.527344 39.558594 0 77.019531 8.976562 110.464844 24.992188 4.085937 1.957031 8.109375 4.023437 12.070312 6.1875 47.773438 26.089843 86.320313 66.96875 109.472656 116.484374 1.359376 2.875 2.65625 5.789063 3.886719 8.726563 12.949219 30.613281 20.105469 64.28125 20.105469 99.609375zm0 0" fill="#6ccfcb"/><path d="m378.535156 31.179688-74.605468 113.582031-15.128907-54.441407-91.765625 124.09375 99.839844-194.175781 17.136719 61.660157 52.453125-56.90625c4.085937 1.957031 8.109375 4.023437 12.070312 6.1875zm0 0" fill="#a1edda"/><path d="m500.695312 266.203125-180.671874 118.671875 54.445312 15.132812-124.09375 91.757813 194.175781-99.835937-61.660156-17.140626zm0 0" fill="#a1edda"/><path d="m92.085938 166.640625 31.753906 151.03125-78.761719-203.632813 57.46875 28.160157-8.421875-84.519531c3.425781-2.8125 6.925781-5.527344 10.5-8.152344l38.203125 141.980468zm0 0" fill="#a1edda"/><path d="m416.683594 225.707031 61.660156 17.148438-194.183594 99.839843 124.101563-91.761718-54.449219-15.132813 134.195312-88.136719c1.359376 2.875 2.65625 5.789063 3.886719 8.726563zm0 0" fill="#a1edda"/><path d="m324.660156 346.78125c-3.269531 9.65625-8.660156 18.535156-16.183594 26.058594-7.191406 7.179687-18.171874 12.246094-31.128906 15.308594-38.128906 8.964843-64.167968 44.597656-61.941406 83.738281.6875 12.402343.15625 24.699219-1.589844 36.65625-107.84375-17.890625-192.90625-103.164063-210.472656-211.113281-.492188-2.976563-.929688-5.976563-1.316406-8.996094 6.886718-.722656 13.867187-1.035156 20.90625-.949219 39.761718.480469 73.613281-27.609375 81.023437-66.6875 2.851563-15.109375 8.253907-28.023437 16.351563-36.132813 23.292968-23.28125 59.96875-26.132812 90.382812-9.675781 9.5 5.152344 11.015625 18.023438 3.34375 25.644531-.039062.039063-.09375.09375-.132812.132813-19.917969 19.894531-22.789063 49.289063-6.449219 65.640625 13.835937 13.835938 37 13.917969 55.882813 1.546875l5.097656 16.898437c1.695312 3.800782 4.085937 7.3125 7.199218 10.4375 6.1875 6.175782 14.148438 9.582032 22.246094 10.21875 20.105469 1.546876 33.324219 22.214844 26.78125 41.273438zm0 0" fill="#c92888"/><path d="m307.867188 341.023438c-2.496094 7.378906-6.507813 13.824218-11.929688 19.257812-4.421875 4.429688-12.476562 8.191406-22.664062 10.59375-46.53125 10.941406-78.316407 53.84375-75.589844 102.003906.617187 10.980469.179687 21.753906-1.285156 32.140625-5.296876-1.265625-10.523438-2.683593-15.683594-4.285156-64.949219-19.945313-118.886719-65.042969-150.453125-123.921875-11.746094-21.890625-20.398438-45.695312-25.371094-70.8125 5.851563-.578125 11.816406-.835938 17.847656-.765625 48.125.574219 89.628907-33.539063 98.667969-81.136719 2.300781-12.246094 6.363281-21.792968 11.453125-26.882812 16.644531-16.636719 43.40625-19.625 67.238281-7.722656-25.621094 26.792968-28.066406 66.589843-5.191406 89.453124 14.660156 14.671876 36.339844 19.238282 57.414062 13.34375 2.59375 5.769532 6.230469 11.003907 10.765626 15.539063 8.941406 8.941406 20.8125 14.398437 33.425781 15.371094 3.832031.300781 6.445312 2.171875 7.980469 3.707031 3.710937 3.71875 5.046874 9.269531 3.375 14.117188zm0 0" fill="#f76cae"/><path d="m282.550781 348.945312c0 19.148438-61.953125 8.167969-87.824219 55.148438-21.554687 39.152344-9.550781 69.789062-14.011718 96.640625-64.949219-19.945313-118.886719-65.042969-150.453125-123.921875 12.453125-13.886719 33.707031-32.070312 61.65625-35.359375 33.074219-3.886719 35.925781-41.816406 34.847656-63.175781-.613281-12.195313 13.3125-19.695313 22.957031-12.214844 11.304688 8.757812 20.554688 23.992188 26.929688 21.566406 10.519531-3.992187 56.882812 18.484375 56.882812 18.484375s9.476563 27.199219 27.207032 27.199219c17.722656 0 21.808593 7.460938 21.808593 15.632812zm0 0" fill="#f2efea"/><path d="m218.898438 315.363281-31.726563-31.726562c-3.546875-3.546875-3.472656-9.320313.160156-12.777344l9.09375-8.652344 4.257813-4.046875 20.140625-19.160156 4.253906-4.050781 11.8125-11.230469 8.371094-7.90625 4.269531-4.035156 20.214844-19.101563 4.269531-4.039062 23.738281-22.421875 4.269532-4.039063 23.734374-22.421875 4.269532-4.039062 23.738281-22.421875 15.9375-7.746094 12.066406-18.714844 4.269531-4.039062 41.542969-4.816407 9.269531 21.015626c-.988281.585937-1.902343 1.320312-2.691406 2.15625l-14.464844 15.300781-4.039062 4.269531-22.421875 23.738281-4.039063 4.265625-22.433593 23.730469-4.035157 4.269531-22.433593 23.730469-4.035157 4.265625-22.425781 23.738281-4.035156 4.269531-19.113281 20.207032-4.035156 4.269531-19.101563 20.214844-4.039063 4.269531-6.898437 7.300781-12.234375 12.867188-4.046875 4.261719-8.648437 9.089843c-3.460938 3.628907-9.234376 3.703125-12.78125.15625zm0 0" fill="#2f373b"/><path d="m104.246094 451.121094-52.847656-52.847656c-4.195313-4.195313-4.195313-11 0-15.195313l15.382812-15.382813c4.195312-4.195312 11-4.195312 15.195312 0l52.847657 52.847657c4.199219 4.195312 4.199219 11 0 15.199219l-15.378907 15.378906c-4.195312 4.195312-11 4.195312-15.199218 0zm0 0" fill="#d8d4ce"/><path d="m199.601562 341.15625-38.238281-38.238281c-3.566406-3.566407-3.566406-9.347657 0-12.914063l2.375-2.375c3.566407-3.566406 9.347657-3.566406 12.914063 0l38.238281 38.238282c3.566406 3.566406 3.566406 9.347656 0 12.914062l-2.375 2.375c-3.566406 3.566406-9.347656 3.566406-12.914063 0zm0 0" fill="#d8d4ce"/><path d="m175.796875 364.960938-38.238281-38.238282c-3.566406-3.566406-3.566406-9.347656 0-12.914062l2.375-2.375c3.566406-3.566406 9.347656-3.566406 12.914062 0l38.238282 38.238281c3.566406 3.566406 3.566406 9.347656 0 12.914063l-2.375 2.375c-3.566407 3.566406-9.347657 3.566406-12.914063 0zm0 0" fill="#d8d4ce"/><path d="m140.34375 400.414062-38.234375-38.238281c-3.566406-3.566406-3.566406-9.347656 0-12.914062l2.375-2.375c3.5625-3.566407 9.347656-3.566407 12.910156 0l38.238281 38.238281c3.566407 3.566406 3.566407 9.347656 0 12.914062l-2.375 2.375c-3.566406 3.566407-9.347656 3.566407-12.914062 0zm0 0" fill="#d8d4ce"/><g fill="#ffd073"><path d="m415.65625 120.71875-33.886719-33.886719 4.269531-4.039062 33.652344 33.65625zm0 0"/><path d="m362.726562 176.71875-36.96875-36.964844 4.269532-4.039062 36.734375 36.734375zm0 0"/><path d="m336.253906 204.71875-38.503906-38.503906 4.269531-4.039063 38.273438 38.273438zm0 0"/><path d="m309.792969 232.722656-40.046875-40.046875 4.269531-4.039062 39.8125 39.816406zm0 0"/><path d="m286.648438 257.199219-41.386719-41.386719 4.269531-4.035156 41.152344 41.152344zm0 0"/><path d="m263.507812 281.683594-42.679687-42.679688 4.25-4.054687 42.464844 42.464843zm0 0"/><path d="m240.328125 306.109375-43.902344-43.902344 4.257813-4.042969 43.6875 43.6875zm0 0"/></g><path d="m415.136719 82.128906-347.363281 347.367188c-1.339844-1.441406-2.65625-2.894532-3.929688-4.367188l347.144531-347.148437zm0 0" fill="#fff"/><path d="m405.722656 72.726562-346.738281 346.738282c-1.265625-1.515625-2.507813-3.050782-3.71875-4.597656l346.300781-346.300782zm0 0" fill="#fff"/><path d="m424.550781 91.554688-347.5 347.5c-1.398437-1.367188-2.789062-2.757813-4.160156-4.15625l347.503906-347.503907zm0 0" fill="#fff"/><path d="m433.96875 100.957031-347.160156 347.15625c-1.472656-1.292969-2.933594-2.609375-4.375-3.9375l347.375-347.375zm0 0" fill="#fff"/><path d="m353.761719 113.292969 11.898437-10.363281-1.839844-9.464844c-1.121093-5.777344 2.023438-11.539063 7.488282-13.722656l107.503906-42.929688c8.988281-3.589844 19.25-1.480469 26.09375 5.363281 6.757812 6.757813 8.90625 16.859375 5.484375 25.785157l-6.679687 17.40625c-.613282 1.601562-1.792969 2.917968-3.316407 3.699218-3.980469 2.050782-8.832031-.128906-9.941406-4.464844-.675781-2.628906-3.175781-4.363281-5.871094-4.074218l-1.007812.109375c-2.382813.253906-4.320313 2.027343-4.777344 4.378906l-11.140625 56.941406c-2.652344 13.550781-16.203125 22.042969-29.550781 18.523438l-50.457031-13.304688zm0 0" fill="#c92888"/><path d="m443.507812 144.078125c-1.234374 0-2.472656-.164063-3.683593-.484375l-18.574219-4.894531c-17.058594-4.5-32.617188-13.441407-45.09375-25.914063-2.671875-2.675781-2.523438-7.058594.328125-9.542968 1.757813-1.53125 2.566406-3.882813 2.121094-6.171876l-1.828125-9.425781c-.328125-1.695312.597656-3.394531 2.203125-4.035156l99.371093-39.683594c1.734376-.691406 3.5625-1.042969 5.425782-1.042969 3.902344 0 7.570312 1.511719 10.335937 4.261719 4.1875 4.167969 5.300781 10.535157 3.183594 16.050781l-2.117187 5.515626c-1.132813 2.957031-4.632813 4.050781-7.363282 2.449218-1.910156-1.121094-4.125-1.753906-6.457031-1.753906-.453125 0-.914063.023438-1.363281.074219l-.933594.097656c-5.605469.601563-10.097656 4.71875-11.179688 10.25l-10.296874 52.632813c-1.316407 6.730468-7.238282 11.617187-14.078126 11.617187zm0 0" fill="#f76cae"/><path d="m376.839844 63.960938-5.226563-19.515626c-2.097656-7.824218-11.882812-10.449218-17.609375-4.71875l-14.285156 14.285157c-5.730469 5.730469-3.109375 15.515625 4.71875 17.609375l19.511719 5.230468c7.828125 2.097657 14.988281-5.066406 12.890625-12.890624zm0 0" fill="#d8d4ce"/><path d="m366.722656 69.214844c-.226562 0-.460937-.03125-.699218-.097656l-19.515626-5.230469c-1.21875-.324219-1.640624-1.253907-1.777343-1.78125-.140625-.523438-.246094-1.535157.648437-2.429688l14.285156-14.285156c.496094-.496094 1.078126-.746094 1.738282-.746094.203125 0 1.988281.054688 2.476562 1.875l5.226563 19.511719c.214843.796875.074219 1.527344-.414063 2.164062-.488281.640626-1.226562 1.019532-1.96875 1.019532zm0 0" fill="#f2efea"/><path d="m422.582031 45.640625-5.226562-19.511719c-2.097657-7.828125-11.882813-10.449218-17.609375-4.71875l-14.285156 14.28125c-5.730469 5.730469-3.109376 15.515625 4.71875 17.613282l19.511718 5.226562c7.828125 2.097656 14.992188-5.0625 12.890625-12.890625zm0 0" fill="#d8d4ce"/><path d="m412.464844 50.894531c-.222656 0-.460938-.03125-.699219-.097656l-19.511719-5.226563c-1.222656-.328124-1.640625-1.257812-1.78125-1.78125-.140625-.527343-.242187-1.539062.652344-2.433593l14.28125-14.285157c.496094-.496093 1.082031-.742187 1.742188-.742187.199218 0 1.984374.050781 2.472656 1.871094l5.226562 19.511719c.214844.796874.074219 1.527343-.414062 2.167968-.488282.636719-1.222656 1.015625-1.96875 1.015625zm0 0" fill="#f2efea"/><path d="m468.328125 27.320312-5.230469-19.511718c-2.097656-7.8281252-11.878906-10.449219-17.609375-4.71875l-14.285156 14.285156c-5.730469 5.730469-3.105469 15.511719 4.71875 17.609375l19.511719 5.230469c7.828125 2.09375 14.992187-5.066406 12.894531-12.894532zm0 0" fill="#d8d4ce"/><path d="m458.207031 32.574219c-.222656 0-.460937-.03125-.699219-.097657l-19.511718-5.226562c-1.222656-.328125-1.640625-1.257812-1.78125-1.78125-.140625-.527344-.242188-1.539062.652344-2.433594l14.285156-14.285156c.492187-.496094 1.078125-.742188 1.738281-.742188.203125 0 1.984375.050782 2.472656 1.871094l5.230469 19.511719c.210938.796875.074219 1.527344-.417969 2.167969-.488281.636718-1.222656 1.015625-1.96875 1.015625zm0 0" fill="#f2efea"/><path d="m404.316406 88.617188c0 5.765624-4.671875 10.4375-10.433594 10.4375-5.765624 0-10.433593-4.671876-10.433593-10.4375 0-5.761719 4.667969-10.433594 10.433593-10.433594 5.761719 0 10.433594 4.671875 10.433594 10.433594zm0 0" fill="#2f373b"/><path d="m443.640625 73.613281c0 5.761719-4.671875 10.433594-10.433594 10.433594s-10.433593-4.671875-10.433593-10.433594c0-5.765625 4.671874-10.433593 10.433593-10.433593s10.433594 4.667968 10.433594 10.433593zm0 0" fill="#2f373b"/><path d="m482.964844 58.605469c0 5.761719-4.671875 10.433593-10.433594 10.433593s-10.433594-4.671874-10.433594-10.433593c0-5.765625 4.671875-10.4375 10.433594-10.4375s10.433594 4.671875 10.433594 10.4375zm0 0" fill="#2f373b"/><path d="m62.804688 43.933594v74.257812c-5.972657-2.660156-13.113282-4.210937-20.796876-4.210937-20.945312 0-37.921874 11.5-37.921874 25.6875s16.976562 25.691406 37.921874 25.691406c20.945313 0 37.925782-11.503906 37.925782-25.691406v-75.457031l74.257812-16.136719v50.257812c-5.972656-2.660156-13.113281-4.210937-20.796875-4.210937-20.945312 0-37.921875 11.5-37.921875 25.691406 0 14.1875 16.976563 25.6875 37.921875 25.6875 20.945313 0 37.925781-11.5 37.925781-25.6875v-94.285156c0-7.59375-7.015624-13.246094-14.433593-11.632813l-84.703125 18.402344c-5.472656 1.191406-9.378906 6.035156-9.378906 11.636719zm0 0" fill="#2f373b"/><path d="m474.992188 222.550781v15.96875c0 3.484375-2.425782 6.496094-5.832032 7.238281l-44.789062 9.730469v69.910157c0 13.144531-15.730469 23.796874-35.132813 23.796874-19.40625 0-35.136719-10.652343-35.136719-23.796874 0-13.148438 15.730469-23.800782 35.136719-23.800782 7.117188 0 13.734375 1.4375 19.269531 3.894532v-71.710938c0-3.484375 2.429688-6.496094 5.832032-7.234375l51.675781-11.230469c4.617187-1.003906 8.976563 2.511719 8.976563 7.234375zm0 0" fill="#2f373b"/></svg>