<svg height="512pt" viewBox="0 0 512 512.00015" width="512pt" xmlns="http://www.w3.org/2000/svg"><path d="m512 255.378906c.039062 17.382813-1.652344 34.371094-4.921875 50.792969-21.417969 107.839844-110.628906 191.347656-221.429687 204.128906-9.527344 1.097657-19.207032 1.679688-29.027344 1.699219-106.449219.25-197.890625-64.5-236.710938-156.871094-2.890625-6.859375-5.46875-13.847656-7.75-20.949218-3.949218-12.320313-6.929687-24.929688-8.960937-37.699219v-.011719c-.636719-4.019531-1.199219-8.046875-1.636719-12.089844-.3125-2.828125-.582031-5.667968-.792969-8.507812-.5-6.410156-.7499998-12.832032-.769531-19.25-.328125-136.25 105.859375-247.898438 240.101562-256.128906 5.078126-.320313 10.1875-.4804692 15.277344-.492188 5.691406-.0195312 11.382813.171875 17.050782.53125.988281.058594 1.988281.121094 2.980468.199219.800782.0625 1.589844.121093 2.398438.191406 6.050781.507813 12.0625 1.339844 18.0625 2.238281.398437.0625.789062.109375 1.1875.171875 1.019531.160157 2.050781.308594 3.070312.46875 120.109375 20.859375 211.570313 125.460938 211.871094 251.578125zm0 0" fill="#ff0068"/><path d="m507.078125 306.171875c-21.417969 107.839844-110.628906 191.347656-221.429687 204.128906l-111-112.082031 122.722656-187.96875-53.351563-53.347656 6.890625-6.902344-19.910156-19.910156 4.96875-4.980469-4.96875-15.105469 17.109375-26.972656 14.96875 14.980469 17.921875-17.921875zm0 0" fill="#b7005c"/><path d="m327.179688 250.148438v-17c0-27.953126-23.074219-50.613282-51.539063-50.613282h-39.28125c-28.464844 0-51.539063 22.660156-51.539063 50.613282v17c0 20.515624-6.511718 40.4375-18.207031 57.433593-8.347656 12.140625-13.113281 26.152344-13.113281 41.074219 0 46.324219 45.890625 83.878906 102.5 83.878906s102.5-37.554687 102.5-83.878906c0-14.921875-4.765625-28.933594-13.117188-41.074219-11.691406-17-18.203124-36.921875-18.203124-57.433593zm0 0" fill="#ffa300"/><path d="m358.5 348.660156c0 46.320313-45.890625 83.871094-102.5 83.871094v-250h19.640625c28.460937 0 51.539063 22.660156 51.539063 50.621094v17c0 20.507812 6.511718 40.429687 18.199218 57.429687 8.359375 12.136719 13.121094 26.148438 13.121094 41.078125zm0 0" fill="#e28600"/><path d="m241 101.722656h30v154.996094h-30zm0 0" fill="#d38d12"/><path d="m256 101.722656h15v155h-15zm0 0" fill="#c28310"/><path d="m291 267.300781c0 19.328125-15.671875 35-35 35s-35-15.671875-35-35c0-19.332031 15.671875-35 35-35s35 15.667969 35 35zm0 0" fill="#fff"/><path d="m211 341.179688h90v30h-90zm0 0" fill="#d38d12"/><path d="m231 80.089844h50v50h-50zm0 0" fill="#6500a0"/><path d="m256 80.089844h25v50h-25zm0 0" fill="#48007c"/><path d="m291 267.300781c0 19.328125-15.671875 35-35 35v-70c5.359375 0 10.449219 1.210938 15 3.371094 11.820312 5.617187 20 17.667969 20 31.628906zm0 0" fill="#dbdbdb"/><path d="m256 341.179688h45v30h-45zm0 0" fill="#c28310"/></svg>