<svg height="512pt" viewBox="0 0 512 512.00115" width="512pt" xmlns="http://www.w3.org/2000/svg"><path d="m512 256.269531c0 .320313 0 .640625-.007812.960938 0 1.308593-.019532 2.621093-.050782 3.917969-.070312 3.480468-.199218 6.953124-.410156 10.402343-.128906 2.167969-.289062 4.328125-.480469 6.488281-9.171875 107.632813-84.941406 196.261719-185.910156 224.511719-3.359375.9375-6.75 1.808594-10.167969 2.621094-4.84375 1.136719-9.742187 2.148437-14.683594 3.007813-10.148437 1.769531-20.507812 2.949218-31.039062 3.46875-.621094.042968-1.238281.070312-1.859375.101562-.328125.011719-.667969.03125-1 .039062-3.53125.152344-7.089844.210938-10.660156.210938-3.828125 0-7.648438-.089844-11.449219-.261719-8.628906-.386719-17.140625-1.207031-25.511719-2.4375-4.308593-.621093-8.578125-1.351562-12.808593-2.191406-.230469-.050781-.46875-.089844-.699219-.140625-12.929688-2.597656-25.492188-6.167969-37.621094-10.628906-3.519531-1.300782-7-2.667969-10.449219-4.121094-92.421875-38.6875-157.300781-130.039062-157.191406-236.488281.152344-141.378907 114.890625-255.878907 256.269531-255.730469 119.0625.128906 219.0625 81.511719 247.5625 191.640625.339844 1.328125.679688 2.660156 1 4 .699219 2.890625 1.347657 5.789063 1.949219 8.71875.390625 1.929687.769531 3.871094 1.109375 5.820313.121094.582031.21875 1.160156.320313 1.742187 1.140624 6.519531 2.019531 13.117187 2.648437 19.796875.421875 4.429688.722656 8.890625.910156 13.382812.132813 3.039063.203125 6.089844.222657 9.160157.007812.667969.007812 1.339843.007812 2.007812zm0 0" fill="#6500a0"/><path d="m511.992188 254.261719-96.519532-96.53125-2.453125 2.449219-32.546875-32.550782-15.101562 52.402344-21.101563-21.101562-28.796875 28.800781 34.296875 34.289062-48.804687 36.210938-100.5-100.496094-2.671875 2.214844-32.320313-32.320313-27.828125 27.828125 29.710938 29.710938-15.351563 12.71875-30.851562-30.847657-20.695313 20.691407 59.753907 59.753906-59.738282 59.734375 57.273438 57.277344-12.554688 9.316406-16.050781 22.457031 115.140625 115.472657c3.800781.167968 7.621094.257812 11.449219.257812 3.570312 0 7.128906-.058594 10.660156-.207031.332031-.011719.671875-.03125 1-.042969.621094-.027344 1.238281-.058594 1.859375-.097656 10.53125-.519532 20.890625-1.703125 31.039062-3.472656 4.941407-.859376 9.839844-1.867188 14.683594-3.007813 3.417969-.8125 6.808594-1.679687 10.167969-2.621094 100.96875-28.25 176.738281-116.878906 185.910156-224.507812.191407-2.160157.351563-4.320313.480469-6.492188.210938-3.449219.339844-6.917969.410156-10.398437.03125-1.300782.050782-2.609375.050782-3.921875.007812-.320313.007812-.640625.007812-.960938 0-.667969 0-1.339843-.007812-2.007812zm0 0" fill="#48007c"/><path d="m404.734375 375.058594-24.257813-24.257813v-223.167969h-30v219.882813l-27.550781 27.542969 21.214844 21.214844 19.691406-19.691407 19.6875 19.691407zm0 0" fill="#6d5386"/><path d="m315.476562 217.253906h100v90h-100zm0 0" fill="#b7005c"/><path d="m315.476562 247.179688h100v30h-100zm0 0" fill="#dbdbdb"/><path d="m315.476562 157.730469h100v30h-100zm0 0" fill="#e28600"/><path d="m189.734375 375.058594-24.257813-24.257813v-223.167969h-30v219.882813l-27.550781 27.542969 21.214844 21.214844 19.691406-19.691407 19.6875 19.691407zm0 0" fill="#7d5f9b"/><path d="m100.476562 217.253906h100v90h-100zm0 0" fill="#ff0068"/><path d="m100.476562 247.179688h100v30h-100zm0 0" fill="#fff"/><path d="m100.476562 157.730469h100v30h-100zm0 0" fill="#ffa300"/><path d="m356 316.273438c0 55.226562-44.769531 100-100 100-55.226562 0-100-44.773438-100-100 0-55.230469 44.773438-100 100-100 55.230469 0 100 44.769531 100 100zm0 0" fill="#ffa300"/><path d="m356 316.269531c0 55.230469-44.769531 100-100 100v-200c55.230469 0 100 44.769531 100 100zm0 0" fill="#e28600"/><path d="m326 316.273438c0 38.660156-31.339844 70-70 70s-70-31.339844-70-70c0-38.660157 31.339844-70 70-70s70 31.339843 70 70zm0 0" fill="#ff0068"/><path d="m326 316.269531c0 38.660157-31.339844 70-70 70v-140c38.660156 0 70 31.339844 70 70zm0 0" fill="#b7005c"/></svg>