<svg height="512pt" viewBox="0 0 512 512.00006" width="512pt" xmlns="http://www.w3.org/2000/svg"><path d="m511.980469 258.511719c0 1.332031-.019531 2.660156-.0625 3.992187-.058594 2.417969-.160157 4.839844-.289063 7.238282-.148437 2.78125-.339844 5.539062-.578125 8.289062-.011719.160156-.03125.3125-.042969.46875-8.667968 99.339844-73.789062 181.851562-162.476562 216.25-6.941406 2.710938-14 5.089844-21.160156 7.171875-12.429688 3.609375-25.121094 6.226563-37.941406 7.90625-3.636719.480469-7.277344.882813-10.929688 1.191406-.398438.039063-.808594.082031-1.207031.109375-1.441407.121094-2.890625.230469-4.339844.320313-.53125.03125-1.050781.070312-1.582031.089843-4.988282.300782-9.980469.449219-14.96875.460938-2.300782 0-4.601563-.019531-6.902344-.078125-136.207031-3.460937-244.855469-112.710937-249.347656-247.128906-.1796878-5.089844-.199219-10.199219-.0703128-15.289063.1406248-5.691406.4804688-11.371094.9999998-17.03125.160157-1.789062.351563-3.570312.550781-5.359375.832032-7.460937 2.160157-14.851562 3.492188-22.230469 24.1875-119.480468 131.296875-208 257.375-204.7968745 140 3.5585935 250.898438 118.8789065 249.480469 258.4257815zm0 0" fill="#ffa300"/><path d="m511.007812 278.5c-8.667968 99.339844-73.789062 181.851562-162.476562 216.25-6.941406 2.710938-14 5.089844-21.160156 7.171875-12.429688 3.609375-25.121094 6.226563-37.941406 7.90625-3.636719.480469-7.277344.882813-10.929688 1.191406l-185.746094-185.746093 180.40625-96.382813 99.089844-89.148437zm0 0" fill="#e28600"/><path d="m192.777344 425.289062-12.671875-12.671874 3.078125-83.8125-83.8125 3.078124-12.65625-12.660156 169.703125-98.992187 35.355469 35.355469zm0 0" fill="#6500a0"/><path d="m192.777344 425.289062-12.671875-12.671874 3.078125-83.8125 90.910156-90.898438 17.679688 17.679688zm0 0" fill="#48007c"/><path d="m330.472656 160.316406 21.210938 21.210938-128.226563 128.226562-21.214843-21.210937zm0 0" fill="#7d5f9b"/><path d="m212.84375 299.15625 128.230469-128.230469 10.609375 10.605469-128.234375 128.230469zm0 0" fill="#6d5386"/><path d="m203.902344 265.671875 42.425781 42.425781-21.214844 21.214844-42.425781-42.425781zm0 0" fill="#fff"/><path d="m203.898438 308.101562 21.214843-21.214843 21.210938 21.214843-21.210938 21.210938zm0 0" fill="#dbdbdb"/><path d="m351.042969 203.386719-42.425781-42.425781 63.636718-21.21875zm0 0" fill="#382353"/><path d="m351.042969 203.386719-21.210938-21.214844 42.421875-42.429687-6.75 20.25-10.605468 31.820312zm0 0" fill="#2d1a42"/></svg>