<svg height="511pt" viewBox="0 0 511.99989 511" width="511pt" xmlns="http://www.w3.org/2000/svg"><path d="m511.914062 263c-.058593 2.417969-.160156 4.839844-.289062 7.238281-.121094 2.171875-.257812 4.339844-.429688 6.492188-.121093 1.589843-.257812 3.160156-.410156 4.738281-.007812.019531-.007812.039062-.007812.0625-9.550782 98.207031-74.320313 179.617188-162.25 213.714844-6.9375 2.710937-14 5.089844-21.160156 7.171875-12.429688 3.609375-25.117188 6.226562-37.9375 7.90625-4.039063.53125-8.082032.972656-12.140626 1.300781-2.988281.25-5.980468.449219-8.980468.589844h-.058594c-3.742188.171875-7.480469.261718-11.21875.28125h-.632812c-2.296876 0-4.597657-.019532-6.898438-.082032-136.207031-3.457031-244.855469-112.707031-249.347656-247.125-.1796878-5.089843-.199219-10.199218-.0703128-15.289062.1406248-5.691406.4804688-11.371094.9999998-17.03125.160157-1.789062.351563-3.566406.550781-5.359375.832032-7.457031 2.160157-14.847656 3.492188-22.230469 24.1875-119.476562 131.296875-207.996094 257.375-204.792968 141.328125 3.589843 253.003906 121.085937 249.414062 262.414062zm0 0" fill="#6500a0"/><path d="m511.195312 276.730469c-.121093 1.589843-.257812 3.160156-.410156 4.738281-.007812.019531-.007812.039062-.007812.0625-9.550782 98.207031-74.320313 179.617188-162.25 213.714844-6.9375 2.710937-14 5.089844-21.160156 7.171875-12.429688 3.609375-25.117188 6.226562-37.9375 7.90625-4.039063.53125-8.082032.972656-12.140626 1.300781-2.988281.25-5.980468.449219-8.980468.589844h-.058594c-3.742188.171875-7.480469.261718-11.21875.28125l-121-121 73.539062-76.617188-103.566406-103.578125 25.539063-25.53125 103.035156 103.039063 141.390625-147.308594zm0 0" fill="#48007c"/><path d="m136.03125 141.5h29.996094v249.996094h-29.996094zm0 0" fill="#ffa300"/><path d="m165.972656 141.5h30v230h-30zm0 0" fill="#e28600"/><path d="m195.972656 141.5h30v210h-30zm0 0" fill="#ffa300"/><path d="m225.972656 141.5h30v190h-30zm0 0" fill="#e28600"/><path d="m255.972656 141.5h29.996094v170h-29.996094zm0 0" fill="#ec9a19"/><path d="m285.96875 141.5h30v150h-30zm0 0" fill="#c28310"/><path d="m315.96875 141.5h30v130h-30zm0 0" fill="#ec9a19"/><path d="m345.96875 141.5h30v110h-30zm0 0" fill="#c28310"/><path d="m106.003906 181.304688h299.992188v30h-299.992188zm0 0" fill="#ff0068"/><path d="m256 181.300781h149.996094v30h-149.996094zm0 0" fill="#b7005c"/></svg>