<svg height="512pt" viewBox="0 0 512 512" width="512pt" xmlns="http://www.w3.org/2000/svg"><path d="m512 256c0 141.386719-114.613281 256-256 256s-256-114.613281-256-256 114.613281-256 256-256 256 114.613281 256 256zm0 0" fill="#f70fb6"/><path d="m512 256c0 141.378906-114.621094 256-256 256s-256-114.621094-256-256c0-46.21875 12.25-89.570312 33.679688-127 44.121093 77.070312 127.160156 129 222.320312 129s178.210938-51.929688 222.320312-129c21.429688 37.429688 33.679688 80.78125 33.679688 127zm0 0" fill="#c61ea6"/><g fill="#fff"><path d="m218.261719 205.800781v303.429688c-1.160157-.160157-2.320313-.339844-3.480469-.539063-4.210938-.671875-8.382812-1.460937-12.519531-2.339844v-300.550781zm0 0"/><path d="m264.78125 205.796875h16v294.550781h-16zm0 0"/><path d="m327.308594 205.796875h16v221.570313h-16zm0 0"/></g><path d="m431.53125 208.980469c0 3.898437-10.921875 31.769531-10.921875 31.769531l-59.257813 169.929688c-13.730468 39.960937-38.421874 73.890624-70.011718 98.898437-11.550782 1.601563-23.351563 2.421875-35.339844 2.421875h-.230469c-12.738281-.011719-25.269531-.949219-37.507812-2.769531-1.160157-.160157-2.320313-.339844-3.480469-.539063 1.167969-.472656 2.320312-.960937 3.480469-1.472656 16.628906-7.1875 32.257812-16.4375 46.519531-27.488281 5.546875-4.289063 10.890625-8.859375 16-13.691407 19.058594-17.988281 34.9375-39.550781 46.527344-63.878906 3.78125-7.898437 7.089844-16.101562 9.921875-24.570312l6.078125-18.050782 47.269531-140.347656-6.457031-1.863281c-13.351563-3.828125-27.0625-5.96875-40.8125-6.40625-5.339844-.183594-10.679688-.09375-16 .257813-11.96875.75-23.878906 2.808593-35.519532 6.148437l-1.238281.363281c-3.242187.929688-6.5 1.757813-9.769531 2.480469-5.300781 1.1875-10.640625 2.109375-16 2.757813-15.460938 1.910156-31.121094 1.648437-46.519531-.800782-5.371094-.839844-10.710938-1.957031-16-3.339844-1.351563-.347656-2.703125-.710937-4.042969-1.097656l-12.648438-3.640625-23.160156-6.660156-12.128906-3.480469.449219-14.5.53125-17.210937.078125-2.71875 9.359375 2.71875.160156.050781 23.179687 6.730469 13.691407 3.980469c15.230469 4.429687 30.941406 6.640624 46.648437 6.640624 15.710938 0 31.421875-2.210937 46.652344-6.640624 30.308594-8.8125 62.488281-8.859376 92.820312-.140626l35.699219 10.257813c7.089844 2.042969 11.980469 8.53125 11.980469 15.902344zm0 0" fill="#ffd112"/><path d="m184.898438 198.839844-34.167969-9.433594.609375-19.929688 32.699218 9.5zm0 0" fill="#ff9f00"/><path d="m389.449219 201.808594c-34.257813-9.839844-70.46875-9.839844-104.71875 0l-1.289063.371094c-5.140625 1.480468-10.339844 2.691406-15.570312 3.621093-1.03125.1875-2.0625.371094-3.089844.527344-15.410156 2.460937-31.089844 2.59375-46.519531.390625-1.902344-.269531-3.78125-.570312-5.671875-.917969-5.230469-.929687-10.429688-2.140625-15.570313-3.621093l-12.121093-3.339844-23.148438-6.390625-11.019531-3.039063-.449219 14.5 12.128906 3.480469 23.160156 6.660156 12.648438 3.640625c1.339844.386719 2.691406.75 4.042969 1.097656 5.289062 1.382813 10.628906 2.5 16 3.339844 15.398437 2.449219 31.058593 2.710938 46.519531.800782 5.359375-.648438 10.699219-1.570313 16-2.757813 3.269531-.722656 6.527344-1.550781 9.769531-2.480469l1.238281-.363281c11.640626-3.339844 23.550782-5.398437 35.519532-6.148437 5.320312-.351563 10.660156-.441407 16-.257813 13.75.4375 27.460937 2.578125 40.8125 6.40625l6.457031 1.863281-47.269531 140.347656-6.078125 18.050782c-2.832031 8.46875-6.140625 16.671875-9.921875 24.570312-11.589844 24.328125-27.46875 45.890625-46.527344 63.878906-5.109375 4.832032-10.453125 9.402344-16 13.691407-14.261719 11.050781-29.890625 20.300781-46.519531 27.488281-1.160157.511719-2.3125 1-3.480469 1.472656 1.160156.199219 2.320312.378906 3.480469.539063 12.238281 1.820312 24.769531 2.757812 37.507812 2.769531 5.851563-3.609375 11.519531-7.5 17.011719-11.648438 2.707031-2.050781 5.378906-4.160156 8-6.339843 21.890625-18.203125 40.46875-40.773438 54.527344-66.640625 2.863281-5.25 5.53125-10.632813 8-16.140625 3.25-7.230469 6.171875-14.679688 8.722656-22.332031l60.757812-180.378907zm0 0" fill="#ff9f00"/><path d="m185.570312 214.046875-35.289062-10.140625.449219-14.5 34.167969 9.433594.203124 4.527344zm0 0" fill="#ed771b"/><path d="m154.820312 98.519531c0 11.988281-9.582031 21.738281-21.5 22.019531-.171874.007813-.351562.007813-.53125.007813h-.007812c-12.171875-.007813-22.019531-9.859375-22.019531-22.027344 0-12.171875 9.847656-22.023437 22.019531-22.03125h.007812c.179688 0 .359376 0 .53125.007813 11.917969.28125 21.5 10.03125 21.5 22.023437zm0 0" fill="#ff9f00"/><path d="m154.820312 98.519531c0 11.988281-9.582031 21.738281-21.5 22.019531-7.820312-4.242187-13.121093-12.511718-13.121093-22.019531 0-9.511719 5.300781-17.78125 13.121093-22.023437 11.917969.28125 21.5 10.03125 21.5 22.023437zm0 0" fill="#ed771b"/><path d="m154.820312 98.519531c0 12.167969-9.871093 22.027344-22.03125 22.027344h-.007812v-44.058594h.007812c12.160157 0 22.03125 9.859375 22.03125 22.03125zm0 0" fill="#c55835"/><path d="m172.949219 132.027344c0 22.0625-17.777344 39.96875-39.800781 40.171875h-.367188c-22.191406 0-40.171875-17.992188-40.171875-40.171875 0-22.1875 17.980469-40.179688 40.171875-40.179688h.367188c22.023437.199219 39.800781 18.109375 39.800781 40.179688zm0 0" fill="#ffd112"/><path d="m172.949219 132.027344c0 22.0625-17.777344 39.96875-39.800781 40.171875-12.46875-8.980469-20.589844-23.632813-20.589844-40.171875 0-16.550782 8.121094-31.199219 20.589844-40.179688 22.023437.199219 39.800781 18.109375 39.800781 40.179688zm0 0" fill="#ff9f00"/><path d="m172.949219 132.027344c0 22.179687-17.96875 40.160156-40.160157 40.171875v-80.351563c22.191407.011719 40.160157 17.992188 40.160157 40.179688zm0 0" fill="#ed771b"/><path d="m162.410156 207.390625 12.839844 291.609375c-14.800781-4.921875-29.011719-11.148438-42.46875-18.558594-7.382812-4.0625-14.542969-8.472656-21.460938-13.222656-6.550781-4.488281-12.871093-9.277344-18.960937-14.347656l10.992187-249.5 1.367188-31.171875.429688-9.769531.050781-1.199219.261719-5.800781.378906-8.679688h53.898437l.640625 14.460938v.007812l.480469 10.980469v.050781l.890625 20.199219.480469 10.921875zm0 0" fill="#ffd112"/><path d="m162.410156 207.390625 12.839844 291.609375c-14.800781-4.921875-29.011719-11.148438-42.46875-18.558594-7.382812-4.0625-14.542969-8.472656-21.460938-13.222656l5.578126-264.207031.640624-30.8125.011719-.390625.050781-2.578125.320313-14.800781.15625-7.679688h41.660156l.640625 14.460938v.007812l.480469 10.980469v.050781l.890625 20.199219.480469 10.921875zm0 0" fill="#ff9f00"/><path d="m162.410156 207.390625 12.839844 291.609375c-14.800781-4.921875-29.011719-11.148438-42.46875-18.558594v-333.691406h26.957031l.640625 14.460938v.007812l.480469 10.980469v.050781l.890625 20.199219.480469 10.921875zm0 0" fill="#ed771b"/><path d="m185.101562 159.46875c0 3.507812-1.421874 6.699219-3.730468 9-2.300782 2.308594-5.480469 3.730469-8.992188 3.730469h-79.179687c-7.027344 0-12.730469-5.703125-12.730469-12.730469 0-3.511719 1.429688-6.691406 3.730469-8.992188 2.300781-2.296874 5.480469-3.730468 9-3.730468h79.179687c7.019532 0 12.722656 5.703125 12.722656 12.722656zm0 0" fill="#ff9f00"/><path d="m185.101562 159.46875c0 3.507812-1.421874 6.699219-3.730468 9-2.300782 2.308594-5.480469 3.730469-8.992188 3.730469h-54.847656c-7.03125 0-12.730469-5.703125-12.730469-12.730469 0-3.511719 1.429688-6.691406 3.730469-8.992188 2.296875-2.296874 5.480469-3.730468 9-3.730468h54.847656c7.019532 0 12.722656 5.703125 12.722656 12.722656zm0 0" fill="#ed771b"/><path d="m185.101562 159.46875c0 3.507812-1.421874 6.699219-3.730468 9-2.300782 2.308594-5.480469 3.730469-8.992188 3.730469h-39.589844v-25.453125h39.589844c7.019532 0 12.722656 5.703125 12.722656 12.722656zm0 0" fill="#c55835"/></svg>