<svg height="511pt" viewBox="1 1 511.99964 511" width="511pt" xmlns="http://www.w3.org/2000/svg"><path d="m512 256.769531c0 1.628907-.019531 3.261719-.0625 4.878907-.046875 2.601562-.136719 5.199218-.269531 7.789062-.039063.871094-.089844 1.742188-.140625 2.613281-.226563 3.796875-.539063 7.578125-.929688 11.339844-.449218 4.328125-1.007812 8.628906-1.6875 12.898437-1.3125 8.410157-3.03125 16.691407-5.140625 24.808594-23.25 89.460938-93.660156 159.882813-183.078125 183.160156-8.140625 2.121094-16.441406 3.851563-24.882812 5.171876-13.058594 2.027343-26.449219 3.089843-40.078125 3.070312-4.742188-.011719-9.460938-.140625-14.128907-.402344-1.921874-.109375-3.820312-.230468-5.722656-.378906-5.769531-.449219-11.46875-1.101562-17.109375-1.917969-1.539062-.222656-3.070312-.460937-4.601562-.710937-2.75-.449219-5.488281-.941406-8.207031-1.480469-.230469-.050781-.472657-.089844-.703126-.140625-2.65625-.539062-5.316406-1.109375-7.949218-1.730469-10.140625-2.378906-20.039063-5.359375-29.667969-8.898437-3.519531-1.300782-7-2.671875-10.449219-4.121094-92.421875-38.691406-157.300781-130.039062-157.191406-236.488281.148438-141.378907 114.890625-255.878907 256.269531-255.730469 116.738281.121094 215.160157 78.378906 245.820313 185.238281 1.800781 6.28125 3.371094 12.660157 4.6875 19.121094.511718 2.511719.992187 5.03125 1.433594 7.558594 1.136718 6.523437 2.019531 13.121093 2.648437 19.800781.308594 3.28125.558594 6.570312.738281 9.878906.269532 4.851563.410156 9.75.402344 14.671875zm0 0" fill="#ffa300"/><path d="m512 256.769531c0 1.628907-.019531 3.261719-.0625 4.878907-.046875 2.601562-.136719 5.199218-.269531 7.789062-.039063.871094-.089844 1.742188-.140625 2.613281-.226563 3.796875-.539063 7.578125-.929688 11.339844-.449218 4.328125-1.007812 8.628906-1.6875 12.898437-1.3125 8.410157-3.03125 16.691407-5.140625 24.808594-23.25 89.460938-93.660156 159.882813-183.078125 183.160156-8.140625 2.121094-16.441406 3.851563-24.882812 5.171876-13.058594 2.027343-26.449219 3.089843-40.078125 3.070312-4.742188-.011719-9.460938-.140625-14.128907-.402344l-115.601562-115.597656 260-280 125.597656 125.597656c.269532 4.851563.410156 9.75.402344 14.671875zm0 0" fill="#e28600"/><path d="m126 116.5h260v280h-260zm0 0" fill="#fff"/><path d="m256 116.5h130v280h-130zm0 0" fill="#dbdbdb"/><path d="m196 276.5h20v120h-20zm0 0" fill="#6500a0"/><path d="m296 276.5h20v120h-20zm0 0" fill="#48007c"/><path d="m181 180.851562h50v120h-50zm0 0" fill="#382353"/><path d="m281 180.851562h50v120h-50zm0 0" fill="#2d1a42"/><path d="m126 116.5h260v90h-260zm0 0" fill="#6500a0"/><path d="m256 116.5h130v90h-130zm0 0" fill="#48007c"/></svg>