<svg height="512pt" viewBox="0 0 512 512" width="512pt" xmlns="http://www.w3.org/2000/svg"><path d="m512 256c0 34.148438-6.6875 66.75-18.828125 96.539062-3.3125 8.148438-7.042969 16.078126-11.160156 23.78125-3.875 7.28125-8.097657 14.347657-12.632813 21.179688-45.859375 69.015625-124.3125 114.5-213.378906 114.5-141.386719 0-256-114.613281-256-256s114.613281-256 256-256 256 114.613281 256 256zm0 0" fill="#304b82"/><path d="m437.539062 94.445312c-4.140624-12.027343 16.84375-37.238281 9.582032-46.878906-7.527344-9.992187-37.65625 3.300782-47.691406-3.71875-10.136719-7.085937-7.996094-39.90625-19.824219-43.53125-11.707031-3.59375-28.273438 24.753906-40.777344 24.976563-12.066406.214843-29.59375-27.675781-41.621094-23.535157-12.027343 4.140626-8.667969 36.910157-18.308593 44.171876-9.988282 7.523437-40.496094-4.617188-47.511719 5.421874-7.085938 10.136719 14.808593 34.683594 11.183593 46.511719-3.589843 11.707031-35.515624 19.785157-35.296874 32.289063.214843 12.066406 32.273437 19.015625 36.414062 31.042968 4.140625 12.027344-16.839844 37.242188-9.582031 46.882813 7.527343 9.988281 37.65625-3.300781 47.691406 3.714844 10.140625 7.085937 7.996094 39.910156 19.824219 43.535156 11.707031 3.589844 28.273437-24.757813 40.777344-24.976563 12.066406-.214843 29.59375 27.675782 41.621093 23.535157 12.027344-4.140625 8.667969-36.910157 18.308594-44.171875 9.988281-7.523438 40.496094 4.613281 47.511719-5.421875 7.085937-10.140625-14.808594-34.683594-11.183594-46.511719 3.589844-11.707031 35.515625-19.785156 35.292969-32.289062-.210938-12.066407-32.269531-19.019532-36.410157-31.046876zm0 0" fill="#d8d4ce"/><path d="m473.058594 256c0 119.882812-97.1875 217.058594-217.058594 217.058594-119.882812 0-217.058594-97.175782-217.058594-217.058594s97.175782-217.058594 217.058594-217.058594c9.039062 0 17.953125.554688 26.695312 1.632813 69.957032 8.578125 129.621094 50.4375 162.660157 109.265625 17.648437 31.375 27.703125 67.59375 27.703125 106.160156zm0 0" fill="#2f373b"/><path d="m437.75 256c0 54.867188-24.316406 104.0625-62.757812 137.394531-31.878907 27.636719-73.488282 44.367188-118.992188 44.367188-100.382812 0-181.761719-81.378907-181.761719-181.761719 0-62.902344 31.953125-118.34375 80.523438-150.96875 28.929687-19.433594 63.757812-30.78125 101.238281-30.78125 100.371094 0 181.75 81.367188 181.75 181.75zm0 0" fill="#ff9c40"/><path d="m449.839844 204.289062c-7.011719 10.039063-37.523438-2.101562-47.511719 5.421876-9.632813 7.261718-6.28125 40.03125-18.308594 44.167968-12.027343 4.148438-29.558593-23.738281-41.617187-23.53125-12.507813.21875-29.070313 28.566406-40.78125 24.984375-11.828125-3.625-9.6875-36.457031-19.824219-43.542969-10.039063-7.011718-40.164063 6.28125-47.6875-3.71875-7.261719-9.632812 13.71875-34.847656 9.582031-46.875-4.148437-12.027343-36.207031-18.972656-36.414062-31.042968-.21875-12.507813 31.703125-20.585938 35.296875-32.289063 3.625-11.828125-18.277344-36.371093-11.191407-46.507812 7.019532-10.039063 37.523438 2.101562 47.511719-5.433594 1.566407-1.179687 2.800781-3.039063 3.800781-5.347656 69.957032 8.578125 129.621094 50.4375 162.660157 109.265625-3.3125 2.507812-5.828125 5.117187-6.695313 7.941406-3.628906 11.828125 18.261719 36.371094 11.179688 46.507812zm0 0" fill="#85b5c7"/><path d="m437.75 256c0 19.675781-3.125 38.621094-8.914062 56.363281-3.113282 9.570313-7 18.785157-11.585938 27.574219-10.636719 20.394531-25.027344 38.515625-42.257812 53.457031-28.933594 19.433594-63.757813 30.78125-101.230469 30.78125-100.382813 0-181.757813-81.375-181.757813-181.757812 0-54.871094 24.3125-104.0625 62.757813-137.386719 23.789062-15.984375 51.574219-26.496094 81.542969-29.726562 6.46875-.699219 13.039062-1.054688 19.695312-1.054688 83.863281 0 154.457031 56.800781 175.417969 134.03125 4.125 15.203125 6.332031 31.210938 6.332031 47.71875zm0 0" fill="#ffd073"/><path d="m431.417969 208.28125c-10.910157-.734375-23.363281-2.875-29.089844 1.429688-9.632813 7.261718-6.28125 40.03125-18.308594 44.167968-12.027343 4.148438-29.558593-23.738281-41.617187-23.53125-12.507813.21875-29.070313 28.566406-40.78125 24.984375-11.828125-3.625-9.6875-36.457031-19.824219-43.542969-10.039063-7.011718-40.164063 6.28125-47.6875-3.71875-7.261719-9.632812 13.71875-34.847656 9.582031-46.875-4.148437-12.027343-36.207031-18.972656-36.414062-31.042968-.21875-12.507813 31.703125-20.585938 35.296875-32.289063 1.722656-5.621093-2.320313-14.105469-6.269531-22.558593 6.46875-.699219 13.039062-1.054688 19.695312-1.054688 83.863281 0 154.457031 56.800781 175.417969 134.03125zm0 0" fill="#ffd694"/><path d="m315.351562 256c0 17.566406-7.628906 33.34375-19.761718 44.210938-10.5 9.414062-24.375 15.140624-39.589844 15.140624-32.777344 0-59.351562-26.574218-59.351562-59.351562 0-25.308594 15.832031-46.90625 38.140624-55.441406 6.582032-2.53125 13.738282-3.910156 21.210938-3.910156 32.777344 0 59.351562 26.574218 59.351562 59.351562zm0 0" fill="#151a1c"/><path d="m315.351562 256c0 17.566406-7.628906 33.34375-19.761718 44.210938-6.582032 2.527343-13.738282 3.90625-21.210938 3.90625-32.777344 0-59.347656-26.570313-59.347656-59.351563 0-16.457031 6.695312-31.355469 17.53125-42.109375.722656-.71875 1.464844-1.417969 2.226562-2.097656 6.582032-2.53125 13.738282-3.910156 21.210938-3.910156 30.804688 0 56.132812 23.46875 59.066406 53.5.191406 1.921874.285156 3.875.285156 5.851562zm0 0" fill="#2f373b"/><path d="m493.171875 352.539062c-6.449219 15.839844-14.453125 30.886719-23.792969 44.960938l-114.324218-197.839844 37.316406-21.558594zm0 0" fill="#f76cae"/><path d="m482.011719 376.320312c-3.875 7.28125-8.097657 14.347657-12.632813 21.179688l-114.324218-197.839844 18.652343-10.773437zm0 0" fill="#c92888"/><path d="m400.78125 126.046875 24.214844 41.894531c8.476562 14.671875 3.453125 33.445313-11.214844 41.921875l-41.902344 24.210938c-14.667968 8.476562-33.441406 3.457031-41.917968-11.214844l-24.210938-41.898437c-8.476562-14.671876-3.457031-33.441407 11.214844-41.921876l41.898437-24.210937c14.671875-8.476563 33.441407-3.453125 41.917969 11.21875zm0 0" fill="#d8d4ce"/><path d="m400.78125 126.046875 24.214844 41.894531c8.476562 14.671875 3.453125 33.445313-11.214844 41.921875l-9.167969 5.296875c-14.667969 8.476563-33.441406 3.453125-41.917969-11.21875l-24.210937-41.898437c-8.476563-14.667969-3.457031-33.441407 11.214844-41.917969l9.164062-5.296875c14.671875-8.476563 33.441407-3.453125 41.917969 11.21875zm0 0" fill="#f2efea"/><path d="m315.066406 250.148438c-4.816406 3.867187-9.414062 6.414062-13.445312 5.183593-11.828125-3.625-9.6875-36.457031-19.824219-43.542969-10.039063-7.011718-40.164063 6.28125-47.6875-3.71875-1.109375-1.472656-1.558594-3.3125-1.546875-5.414062.722656-.71875 1.464844-1.417969 2.226562-2.097656 6.582032-2.53125 13.738282-3.910156 21.210938-3.910156 30.804688 0 56.132812 23.46875 59.066406 53.5zm0 0" fill="#85b5c7"/></svg>