<svg height="512pt" viewBox="0 0 512 512.00015" width="512pt" xmlns="http://www.w3.org/2000/svg"><path d="m512 256.269531c0 .230469 0 .460938-.011719.691407v.269531c0 1.308593-.019531 2.621093-.046875 3.917969-.011718.480468-.019531.960937-.03125 1.441406-.078125 3-.199218 5.992187-.378906 8.960937-.011719.089844-.011719.167969-.019531.257813-.589844 9.792968-1.730469 19.421875-3.402344 28.882812-1.230469 7-2.757813 13.898438-4.539063 20.6875-1.921874 7.300782-4.160156 14.472656-6.699218 21.5-24.851563 68.910156-78.429688 124.082032-146.261719 151.070313-11.5 4.570312-23.398437 8.339843-35.640625 11.222656-4.839844 1.136719-9.738281 2.148437-14.679688 3.007813-4.078124.710937-8.1875 1.332031-12.328124 1.839843-6.171876.769531-12.410157 1.320313-18.710938 1.628907-.621094.042968-1.238281.070312-1.859375.101562-.332031.011719-.671875.03125-1 .039062-3.53125.152344-7.089844.210938-10.660156.210938-1.371094 0-2.742188-.011719-4.109375-.03125-.320313-.007812-.632813-.007812-.949219-.019531-4.292969-.089844-8.5625-.277344-12.800781-.589844-.371094-.019531-.730469-.050781-1.101563-.078125-.121093 0-.230469-.011719-.347656-.019531-5.941406-.453125-11.832031-1.101563-17.652344-1.960938-2.050781-.289062-4.089843-.609375-6.109375-.960937-2.25-.378906-4.480468-.789063-6.699218-1.230469-.230469-.050781-.472657-.089844-.699219-.140625-12.929688-2.597656-25.492188-6.167969-37.621094-10.628906-3.519531-1.300782-7-2.667969-10.449219-4.121094-92.421875-38.6875-157.300781-130.039062-157.191406-236.488281.148438-141.378907 114.890625-255.878907 256.269531-255.730469 119.0625.128906 219.0625 81.511719 247.5625 191.640625.339844 1.328125.679688 2.660156 1 4 .699219 2.890625 1.347657 5.789063 1.949219 8.71875.390625 1.929687.769531 3.871094 1.109375 5.820313.121094.582031.21875 1.160156.320313 1.742187 1.140624 6.519531 2.019531 13.117187 2.648437 19.796875.101563 1.082031.199219 2.160156.28125 3.25.269531 3.242188.480469 6.511719.609375 9.78125.011719.121094.019531.230469.019531.351562.160157 3.699219.230469 7.429688.230469 11.167969zm0 0" fill="#ffa300"/><path d="m503.570312 321.378906c-1.921874 7.300782-4.160156 14.472656-6.699218 21.5-24.851563 68.910156-78.429688 124.082032-146.261719 151.070313-11.5 4.570312-23.398437 8.339843-35.640625 11.222656-4.839844 1.136719-9.738281 2.148437-14.679688 3.007813-4.078124.710937-8.1875 1.332031-12.328124 1.839843-6.171876.769531-12.410157 1.320313-18.710938 1.628907-.621094.042968-1.238281.070312-1.859375.101562-.332031.011719-.671875.03125-1 .039062-3.53125.152344-7.089844.210938-10.660156.210938-1.371094 0-2.742188-.011719-4.109375-.03125-.320313-.007812-.632813-.007812-.949219-.019531l-114.671875-114.667969 45.859375-45.851562-75.859375-75.859376 103.171875-103.179687 3.839844 3.847656 38.160156-38.15625 106.308594 106.308594 34.550781-34.550781zm0 0" fill="#e28600"/><path d="m136 267.285156h240v130h-240zm0 0" fill="#fff"/><path d="m256 267.289062h120v130h-120zm0 0" fill="#fff"/><path d="m176.09375 327.285156h20v70h-20zm0 0" fill="#6500a0"/><path d="m246 327.285156h20v70h-20zm0 0" fill="#6500a0"/><path d="m316.09375 327.285156h20v70h-20zm0 0" fill="#48007c"/><path d="m256 327.289062h10v70h-10zm0 0" fill="#48007c"/><path d="m166.09375 255.042969h40v80.480469h-40zm0 0" fill="#382353"/><path d="m236 255.042969h40v80.480469h-40zm0 0" fill="#382353"/><path d="m256 255.039062h20v80.480469h-20zm0 0" fill="#2d1a42"/><path d="m306.09375 255.042969h40v80.480469h-40zm0 0" fill="#2d1a42"/><path d="m361.554688 197.789062h-47.332032c-18.339844 0-35.078125-11.035156-41.726562-28.125-12.5-32.15625-43.742188-54.949218-80.320313-54.949218-47.59375 0-86.175781 38.582031-86.175781 86.175781v74.675781h300v-33.332031c0-24.546875-19.898438-44.445313-44.445312-44.445313zm0 0" fill="#6500a0"/><path d="m406 242.230469v33.339843h-150v-132.558593c7.019531 7.726562 12.640625 16.738281 16.5 26.648437 6.640625 17.101563 23.378906 28.128906 41.71875 28.128906h47.339844c24.542968 0 44.441406 19.902344 44.441406 44.441407zm0 0" fill="#48007c"/></svg>