<svg height="512pt" viewBox="0 0 512.00007 512" width="512pt" xmlns="http://www.w3.org/2000/svg"><path d="m511.699219 255.851562c0 15.496094-1.378907 30.667969-4.019531 45.402344-9.023438 50.429688-32.832032 95.730469-66.773438 131.269532-37.351562 39.117187-86.988281 66.40625-142.699219 75.679687-3.289062.550781-6.601562 1.042969-9.933593 1.460937-10.621094 1.347657-21.4375 2.035157-32.421876 2.035157-141.304687 0-255.851562-114.546875-255.851562-255.847657 0-69.152343 27.445312-131.914062 72.035156-177.957031 31.390625-32.425781 71.292969-56.570312 116.101563-68.828125 21.566406-5.914062 44.269531-9.066406 67.714843-9.066406 20.664063 0 40.746094 2.453125 59.992188 7.082031 112.355469 26.992188 195.855469 128.132813 195.855469 248.769531zm0 0" fill="#f76cae"/><path d="m466.679688 298.351562-2.390626 21.648438-7.144531 64.589844c-2.390625 15.046875-7.101562 29.75-13.855469 43.316406-.761718 1.554688-1.558593 3.089844-2.382812 4.617188-39.554688 41.425781-92.886719 69.589843-152.632812 77.140624-25.644532-3.824218-50.105469-14.652343-69.632813-30.683593-5.449219-4.5-10.597656-9.324219-15.308594-14.503907-4.6875-5.210937-9.023437-10.703124-12.917969-16.457031-3.863281-5.796875-7.277343-11.863281-10.265624-18.097656-2.921876-6.265625-5.386719-12.71875-7.390626-19.289063-1.964843-6.597656-3.417968-13.292968-4.441406-20.027343-.929687-6.746094-1.398437-13.503907-1.398437-20.230469.03125-1.679688.082031-3.351562.148437-5.03125l.101563-2.453125.136719-1.789063.574218-7.183593 1.167969-14.378907c6.300781-76.671874 12.179687-153.320312 16.46875-229.984374.605469-9.585938 1.066406-19.171876 1.578125-28.746094l.386719-7.195313c.113281-2.308593.25-5.128906.269531-6.421875.097656-3.25-.195312-6.457031-.90625-9.558594-1.484375-6.160156-4.804688-11.925781-9.609375-16.539062-2.410156-2.289062-5.167969-4.28125-8.164063-5.890625-3.007812-1.609375-6.257812-2.777344-9.585937-3.53125-6.664063-1.472656-13.691406-1.117187-20.011719 1.296875-3.171875 1.160156-6.179687 2.820312-8.96875 4.875-1.429687 1.023438-2.664062 2.152344-4.082031 3.425781l-5.171875 4.980469c-13.78125 13.328125-27.328125 26.902344-40.339844 41.03125l-8.875-9.386719-14.953125-15.820312c14.847657-12.199219 29.15625-24.960938 43.230469-37.972657l5.285156-4.875 3.351563-2.957031c1.109375-1.023437 2.390625-1.878906 3.59375-2.820312 4.929687-3.601563 10.378906-6.628907 16.164062-8.886719 5.777344-2.234375 11.886719-3.664062 18.066407-4.25 6.171874-.605469 12.386718-.3125 18.472656.699219 6.078125 1.023437 12.019531 2.863281 17.648437 5.421875 1.777344.792968 3.53125 1.671875 5.242188 2.632812 3.707031 2.046875 7.25 4.4375 10.558593 7.152344 4.835938 3.976562 9.242188 8.574219 12.917969 13.773438 3.695313 5.191406 6.695313 10.945312 8.867188 16.980468 2.140625 6.046875 3.425781 12.382813 3.914062 18.691406.285157 3.5.324219 5.472657.449219 7.949219l.386719 7.195313c.523437 9.574218.980469 19.160156 1.578125 28.746094 4.300781 76.664062 10.179687 153.3125 16.476562 229.984374l1.160156 14.378907.574219 7.183593.15625 1.789063c.054688.488281.125.761719.179688 1.148437l.332031 2.160157c.585938 2.851562 1.328125 5.597656 2.226562 8.261719.980469 2.652343 2.078126 5.1875 3.351563 7.632812 5.191406 9.691406 13.125 17.5 22.148437 22.285156 4.53125 2.378906 9.210938 4.125 13.960938 5.054688 4.761719.992187 9.527344 1.117187 14.246094.742187 9.574218-.765625 17.941406-4.378906 24.757812-9.714843.074219-.0625.148438-.101563.210938-.164063 9.679687-7.644531 14.378906-20 12.71875-32.21875l-14.609375-107.320313-4.355469-31.902343zm0 0" fill="#ffd073"/><path d="m163.167969 1.847656c-6.179688.585938-12.289063 2.015625-18.066407 4.25-5.785156 2.257813-11.234374 5.285156-16.164062 8.886719-1.199219.941406-2.484375 1.796875-3.59375 2.832031l-3.351562 2.945313-5.28125 4.886719c-14.078126 13-28.386719 25.761718-43.234376 37.960937l14.871094 15.734375c-2.507812 2.632812-4.984375 5.273438-7.4375 7.9375l-8.875-9.386719-14.953125-15.820312c14.847657-12.199219 29.15625-24.960938 43.230469-37.972657l5.285156-4.875 3.351563-2.957031c1.109375-1.023437 2.390625-1.878906 3.59375-2.820312 4.929687-3.601563 10.378906-6.628907 16.164062-8.886719 5.777344-2.234375 11.886719-3.664062 18.066407-4.25 6.171874-.605469 12.386718-.3125 18.472656.699219.953125.15625 1.902344.347656 2.84375.542969-1.640625.03125-3.292969.136718-4.921875.292968zm0 0" fill="#ff9c40"/><path d="m293.960938 249.160156 3.828124 10.363282c.835938 2.261718-.019531 4.796874-2.050781 6.09375l-26.738281 17.046874 16.746094 45.375c3.148437 8.53125-4.511719 19.214844-17.105469 23.863282-12.59375 4.648437-25.355469 1.5-28.503906-7.027344-3.148438-8.535156 4.511719-19.21875 17.105469-23.867188 4.621093-1.707031 9.257812-2.359374 13.441406-2.085937l-17.179688-46.546875c-.835937-2.261719.019532-4.796875 2.050782-6.09375l30.851562-19.667969c2.753906-1.757812 6.425781-.519531 7.554688 2.546875zm0 0" fill="#c92888"/><path d="m459.859375 202.394531c0 25.324219 20.886719 25.324219 20.886719 50.644531 0 17.265626-9.699219 22.765626-15.871094 32.53125l-154.710938-56.714843c0-25.324219 20.882813-25.324219 20.882813-50.660157 0-25.324218-20.882813-25.324218-20.882813-50.644531 0-24.007812 18.765626-25.253906 20.71875-46.902343.113282-1.1875.164063-2.441407.164063-3.757813 0-6.914063-1.554687-11.945313-3.820313-16.113281-6.035156-11.101563-17.0625-16.132813-17.0625-34.542969 0-8.691406 2.453126-14.390625 5.679688-19.152344 13.566406 3.257813 26.710938 7.601563 39.339844 12.925781 7.464844 3.144532 14.753906 6.644532 21.84375 10.464844 7.949218 4.28125 15.65625 8.96875 23.070312 14.046875 2.839844 1.941407 5.636719 3.933594 8.394532 5.992188 19.433593 14.464843 36.738281 31.632812 51.367187 50.929687.199219 24.96875 20.886719 25.09375 20.886719 50.292969 0 25.335937-20.886719 25.335937-20.886719 50.660156zm0 0" fill="#c92888"/><path d="m298.207031 508.203125c-3.289062.550781-6.601562 1.042969-9.933593 1.460937-25.644532-3.824218-50.105469-14.652343-69.632813-30.683593-5.449219-4.5-10.597656-9.324219-15.308594-14.503907-4.6875-5.210937-9.023437-10.703124-12.917969-16.457031-3.863281-5.796875-7.277343-11.863281-10.265624-18.097656-2.921876-6.265625-5.386719-12.71875-7.390626-19.289063-1.964843-6.597656-3.417968-13.292968-4.441406-20.027343-.929687-6.746094-1.398437-13.503907-1.398437-20.230469.03125-1.679688.082031-3.351562.148437-5.03125l.101563-2.453125.136719-1.789063.574218-7.183593 1.167969-14.378907c6.300781-76.671874 12.179687-153.320312 16.46875-229.984374.605469-9.585938 1.066406-19.171876 1.578125-28.746094l.386719-7.195313c.113281-2.308593.25-5.128906.269531-6.421875.097656-3.25-.195312-6.457031-.90625-9.558594-1.484375-6.160156-4.804688-11.925781-9.609375-16.539062-2.410156-2.289062-5.167969-4.28125-8.164063-5.890625-2.632812-1.421875-5.472656-2.496094-8.375-3.246094 5.460938-1.464843 11.308594-1.515625 16.875-.285156 3.332032.753906 6.589844 1.921875 9.597657 3.53125 2.996093 1.609375 5.742187 3.601563 8.164062 5.890625 4.792969 4.613281 8.117188 10.378906 9.597657 16.539062.722656 3.101563 1.003906 6.308594.917968 9.558594-.03125 1.292969-.164062 4.113282-.28125 6.421875l-.386718 7.195313c-.5 9.574218-.96875 19.160156-1.566407 28.746094-4.289062 76.664062-10.179687 153.3125-16.46875 229.984374l-1.167969 14.378907-.585937 7.183593-.132813 1.789063-.105468 2.453125c-.0625 1.679688-.117188 3.351562-.136719 5.03125 0 6.726562.460937 13.484375 1.398437 20.230469 1.015626 6.734375 2.476563 13.429687 4.429688 20.027343 2.015625 6.570313 4.480469 13.023438 7.402344 19.289063 2.988281 6.234375 6.390625 12.300781 10.253906 18.097656 3.90625 5.753907 8.230469 11.246094 12.929688 16.457031 4.699218 5.179688 9.847656 10.003907 15.300781 14.503907 17.449219 14.320312 38.824219 24.488281 61.476562 29.222656zm0 0" fill="#ff9c40"/><path d="m431.265625 90.078125 3.269531 10.554687c.714844 2.300782-.273437 4.789063-2.371094 5.972657l-27.609374 15.601562 14.3125 46.203125c2.691406 8.6875-5.523438 18.945313-18.347657 22.917969s-25.402343.152344-28.09375-8.53125c-2.691406-8.691406 5.527344-18.949219 18.347657-22.921875 4.707031-1.457031 9.375-1.863281 13.535156-1.371094l-14.679688-47.394531c-.714844-2.300781.273438-4.789063 2.371094-5.972656l31.851562-18c2.84375-1.609375 6.445313-.179688 7.414063 2.941406zm0 0" fill="#f76cae"/><path d="m509.804688 301.113281c-2.074219 4.882813-5.390626 8.859375-9.429688 11.71875-4.628906 3.273438-10.203125 5.066407-15.914062 5.066407-3.597657 0-7.242188-.707032-10.757813-2.199219l-169.828125-72.074219c-13.996094-5.945312-20.53125-22.105469-14.597656-36.101562 4.453125-10.480469 14.644531-16.785157 25.355468-16.785157 3.585938 0 7.230469.707031 10.746094 2.199219l4.996094 2.117188 25.078125 10.640624 139.765625 59.316407c13.992188 5.933593 20.527344 22.105469 14.585938 36.101562zm0 0" fill="#ff9c40"/><path d="m466.679688 298.347656-119.457032-56.730468-.019531-.132813-26.59375-12.632813.019531.136719-.28125-.136719 4.347656 31.902344.277344.117188 14.597656 107.203125c1.664063 12.226562-3.03125 24.578125-12.714843 32.222656-.070313.058594-.136719.105469-.207031.164063-4.847657 3.792968-10.480469 6.71875-16.773438 8.363281.882812.242187 1.761719.4375 2.636719.613281 4.753906.980469 9.523437 1.109375 14.242187.738281 9.574219-.761719 17.9375-4.382812 24.761719-9.714843.070313-.058594.140625-.105469.210937-.164063 9.679688-7.644531 14.375-19.996094 12.710938-32.222656l-6.148438-45.15625c-3.054687-22.425781 19.480469-39.640625 40.3125-30.796875l65.683594 27.878906zm0 0" fill="#ff9c40"/><path d="m509.804688 301.113281c-2.074219 4.882813-5.390626 8.859375-9.429688 11.71875l-164.851562-69.960937c-13.996094-5.945313-20.519532-22.101563-14.585938-36.097656 2.070312-4.882813 5.402344-8.863282 9.4375-11.71875l25.078125 10.640624 139.765625 59.316407c13.992188 5.933593 20.527344 22.105469 14.585938 36.101562zm0 0" fill="#ffd073"/><g fill="#2f373b"><path d="m366.136719 330.929688c0 14.671874-11.894531 26.566406-26.566407 26.566406-14.675781 0-26.570312-11.894532-26.570312-26.566406 0-14.675782 11.894531-26.570313 26.570312-26.570313 14.671876 0 26.566407 11.894531 26.566407 26.570313zm0 0"/><path d="m366.136719 395.074219c0 14.671875-11.894531 26.566406-26.566407 26.566406-14.675781 0-26.570312-11.894531-26.570312-26.566406 0-14.675781 11.894531-26.570313 26.570312-26.570313 14.671876 0 26.566407 11.894532 26.566407 26.570313zm0 0"/><path d="m252.992188 339.539062c0 10.015626-8.121094 18.136719-18.136719 18.136719s-18.136719-8.121093-18.136719-18.136719c0-10.015624 8.121094-18.136718 18.136719-18.136718s18.136719 8.121094 18.136719 18.136718zm0 0"/><path d="m251.152344 290.316406c0 10.015625-8.121094 18.136719-18.136719 18.136719s-18.132813-8.121094-18.132813-18.136719 8.117188-18.132812 18.132813-18.132812 18.136719 8.117187 18.136719 18.132812zm0 0"/><path d="m249.316406 241.097656c0 10.015625-8.121094 18.132813-18.136718 18.132813-10.015626 0-18.132813-8.117188-18.132813-18.132813s8.117187-18.136718 18.132813-18.136718c10.015624 0 18.136718 8.121093 18.136718 18.136718zm0 0"/><path d="m247.480469 191.875c0 10.015625-8.121094 18.136719-18.136719 18.136719s-18.136719-8.121094-18.136719-18.136719 8.121094-18.136719 18.136719-18.136719 18.136719 8.121094 18.136719 18.136719zm0 0"/><path d="m245.640625 142.652344c0 10.015625-8.117187 18.136718-18.132813 18.136718-10.015624 0-18.136718-8.121093-18.136718-18.136718s8.121094-18.132813 18.136718-18.132813c10.015626 0 18.132813 8.117188 18.132813 18.132813zm0 0"/><path d="m243.804688 93.433594c0 10.015625-8.121094 18.132812-18.136719 18.132812s-18.132813-8.117187-18.132813-18.132812 8.117188-18.136719 18.132813-18.136719 18.136719 8.121094 18.136719 18.136719zm0 0"/><path d="m95.6875 83.652344-22.378906 22.378906c-9.273438-9.277344-27.890625-5.695312-41.574219 7.988281-2.796875 2.796875-5.175781 5.800781-7.089844 8.890625l-24.082031-24.078125 55.152344-55.152343zm0 0"/></g><path d="m501.882812 288.789062c2.308594-5.515624-3.972656-13.398437-14.023437-17.605468-10.054687-4.203125-20.074219-3.144532-22.382813 2.371094-2.308593 5.515624 3.972657 13.398437 14.023438 17.605468 10.054688 4.207032 20.074219 3.144532 22.382812-2.371094zm0 0" fill="#ffd694"/><path d="m449.378906 363.296875c0-18.707031-6.515625-33.875-14.546875-33.875-8.035156 0-14.550781 15.167969-14.550781 33.875 0 18.710937 6.515625 33.878906 14.550781 33.878906 8.03125 0 14.546875-15.167969 14.546875-33.878906zm0 0" fill="#ffd694"/><path d="m182.632812 414.296875 29.511719-10.140625c8.863281-3.046875 8.863281-15.578125 0-18.625l-29.511719-10.140625c-2.871093-.988281-5.125-3.242187-6.109374-6.113281l-10.144532-29.511719c-3.042968-8.859375-15.578125-8.859375-18.625 0l-10.140625 29.511719c-.988281 2.871094-3.242187 5.125-6.113281 6.113281l-29.507812 10.140625c-8.863282 3.042969-8.863282 15.578125 0 18.625l29.507812 10.140625c2.871094.988281 5.128906 3.242187 6.113281 6.113281l10.140625 29.507813c3.046875 8.863281 15.582032 8.863281 18.625 0l10.144532-29.507813c.984374-2.871094 3.238281-5.128906 6.109374-6.113281zm0 0" fill="#f2efea"/><path d="m478.839844 267.617188 25.527344-8.773438c7.667968-2.632812 7.667968-13.476562 0-16.109375l-25.527344-8.773437c-2.480469-.851563-4.433594-2.804688-5.285156-5.289063l-8.773438-25.523437c-2.632812-7.667969-13.476562-7.667969-16.113281 0l-8.769531 25.523437c-.855469 2.484375-2.804688 4.4375-5.289063 5.289063l-25.527344 8.773437c-7.664062 2.632813-7.664062 13.476563 0 16.109375l25.527344 8.773438c2.484375.851562 4.433594 2.804687 5.289063 5.285156l8.769531 25.527344c2.636719 7.667968 13.480469 7.667968 16.113281 0l8.773438-25.527344c.851562-2.480469 2.804687-4.433594 5.285156-5.285156zm0 0" fill="#f2efea"/><path d="m57.503906 197.761719 19.09375 54.113281c-5.035156-.402344-10.640625.304688-16.238281 2.28125-15.261719 5.386719-24.679687 18.132812-21.03125 28.472656 3.652344 10.339844 18.980469 14.355469 34.246094 8.96875 15.261719-5.386718 24.675781-18.132812 21.027343-28.472656l-19.402343-54.988281 49.964843-30.855469 12.921876 36.625c-5.035157-.402344-10.636719.304688-16.238282 2.277344-15.261718 5.386718-24.675781 18.136718-21.027344 28.476562 3.648438 10.335938 18.980469 14.351563 34.242188 8.96875 15.261719-5.386718 24.679688-18.136718 21.03125-28.476562l-24.246094-68.707032c-1.953125-5.53125-8.519531-7.847656-13.511718-4.765624l-56.992188 35.191406c-3.683594 2.277344-5.28125 6.808594-3.839844 10.890625zm0 0" fill="#c92888"/><path d="m377.027344 30.472656-14.148438 2.253906-2.132812 38.367188c-.394532 7.21875-9.355469 12.585938-19.996094 11.988281-3.65625-.207031-7.027344-1.074219-9.867188-2.433593-5.453124-2.597657-8.949218-6.953126-8.691406-11.695313.179688-3.214844 2.058594-6.066406 5.035156-8.175781 3.6875-2.640625 9.074219-4.144532 14.976563-3.8125 3.902344.21875 7.484375 1.203125 10.453125 2.726562l2.085938-37.75c.042968-.679687.1875-1.328125.441406-1.933594 7.464844 3.144532 14.753906 6.644532 21.84375 10.464844zm0 0" fill="#f76cae"/><path d="m408.492188 50.511719-.71875 13.066406c-.410157 7.214844-9.359376 12.582031-20.011719 11.988281-10.640625-.585937-18.953125-6.914062-18.554688-14.132812.40625-7.203125 9.355469-12.582032 20.007813-11.988282 3.90625.222657 7.488281 1.214844 10.453125 2.726563l.429687-7.652344c2.839844 1.941407 5.636719 3.933594 8.394532 5.992188zm0 0" fill="#f76cae"/></svg>