<svg height="512pt" viewBox="0 0 512 512" width="512pt" xmlns="http://www.w3.org/2000/svg"><path d="m512 256c0 8.882812-.449219 17.667969-1.335938 26.320312-1.308593 12.8125-3.566406 25.328126-6.679687 37.511719-3.71875 14.472657-8.671875 28.453125-14.742187 41.828125-.523438 1.171875-1.066407 2.328125-1.609376 3.488282-1.878906 3.992187-3.855468 7.921874-5.933593 11.789062v.007812c-11.464844 21.339844-25.851563 40.847657-42.644531 58.015626-17.792969 18.191406-38.273438 33.75-60.792969 46.015624-12.777344 6.960938-26.214844 12.863282-40.195313 17.574219-9.65625 3.273438-19.570312 5.988281-29.707031 8.078125-1.996094.417969-3.992187.804688-6.007813 1.171875h-.011718c-.835938.15625-1.648438.300781-2.484375.449219-.472657.082031-.941407.15625-1.410157.238281-2.195312.367188-4.402343.710938-6.625 1.015625-11.703124 1.648438-23.65625 2.496094-35.820312 2.496094-5.191406 0-10.355469-.15625-15.476562-.460938-2.089844-.125-4.167969-.28125-6.246094-.457031-5.851563-.492187-11.660156-1.183593-17.398438-2.070312-5.996094-.910157-11.933594-2.039063-17.785156-3.363281-21.703125-4.921876-42.371094-12.613282-61.59375-22.664063-7.515625-3.929687-14.808594-8.222656-21.859375-12.863281-15.738281-10.324219-30.25-22.339844-43.300781-35.789063-16.542969-17.019531-30.710938-36.320312-42.027344-57.386719-.804688-1.492187-1.589844-2.988281-2.363281-4.5-17.867188-34.933593-27.949219-74.511718-27.949219-116.445312 0-48.597656 13.542969-94.039062 37.0625-132.742188 6.394531-10.535156 13.53125-20.566406 21.335938-30.03125 4.042968-4.890624 8.246093-9.625 12.632812-14.199218 5.882812-6.144532 12.070312-11.996094 18.539062-17.535156 7.050782-6.039063 14.429688-11.714844 22.117188-16.957032 41.085938-28.109375 90.773438-44.535156 144.3125-44.535156 65.390625 0 125.054688 24.511719 170.296875 64.855469 5.339844 4.765625 10.492187 9.75 15.402344 14.945312 4.128906 4.335938 8.085937 8.804688 11.890625 13.425781 9.445312 11.453126 17.921875 23.738282 25.285156 36.738282 20.542969 36.246094 32.5 78 33.105469 122.492187.007812 1.179688.019531 2.363281.019531 3.542969zm0 0" fill="#304b82"/><path d="m119.511719 140.96875h294.121093v149.78125h-294.121093zm0 0" fill="#ff9c40"/><path d="m481.699219 376.9375v.007812c-11.464844 21.339844-25.851563 40.847657-42.644531 58.015626-17.792969 18.191406-38.273438 33.75-60.792969 46.015624-36.328125 19.78125-77.980469 31.023438-122.261719 31.023438-42.757812 0-83.070312-10.480469-118.5-29.015625-7.515625-3.929687-14.808594-8.222656-21.859375-12.863281-15.738281-10.324219-30.25-22.339844-43.300781-35.789063-16.542969-17.019531-30.710938-36.320312-42.027344-57.386719 9.007812-51.011718 40.457031-94.269531 83.8125-119.199218 14.019531-8.089844 29.265625-14.234375 45.398438-18.089844 8.539062-2.066406 17.316406-3.476562 26.300781-4.199219 4.648437-.375 9.34375-.5625 14.085937-.5625h112.167969c13.261719 0 26.15625 1.472657 38.546875 4.304688.628906.15625 1.253906.28125 1.859375.4375 16.132813 3.875 31.378906 10.019531 45.402344 18.109375 43.332031 24.941406 74.792969 68.199218 83.8125 119.191406zm0 0" fill="#c92888"/><path d="m481.699219 376.9375c-11.464844 21.335938-25.851563 40.855469-42.644531 58.023438-17.792969 18.191406-38.273438 33.75-60.792969 46.015624-36.328125 19.78125-77.980469 31.023438-122.261719 31.023438-42.757812 0-83.070312-10.480469-118.5-29.015625-7.515625-3.929687-14.808594-8.222656-21.859375-12.863281v-63.007813c0-95.117187 77.121094-172.21875 172.261719-172.21875h24.175781c84.847656 0 155.347656 61.3125 169.621094 142.042969zm0 0" fill="#f76cae"/><path d="m317.445312 168.539062v75.414063c0 27.609375-18.203124 50.945313-43.277343 58.695313-5.738281 1.78125-11.855469 2.746093-18.183594 2.746093-33.9375 0-61.441406-27.507812-61.441406-61.441406v-75.414063zm0 0" fill="#eb927a"/><path d="m317.445312 239.175781v4.777344c0 27.609375-18.203124 50.945313-43.277343 58.695313-22.625-6.953126-39.632813-26.625-42.777344-50.691407 4.105469.25 8.234375.375 12.382813.375 11.625 0 23.019531-.921875 34.121093-2.742187 13.679688-2.199219 26.898438-5.71875 39.550781-10.414063zm0 0" fill="#f4c0a3"/><path d="m453.589844 93.226562c-27.21875 68.324219-88.847656 119.203126-163.472656 131.21875-.347657.0625-.703126.113282-1.046876.164063-10.761718 1.726563-21.804687 2.582031-33.082031 2.582031-89.640625 0-166.324219-55.472656-197.589843-133.964844 15.371093-18.621093 33.3125-35.035156 53.289062-48.691406 10.441406-7.148437 21.441406-13.53125 32.914062-19.09375 14.203126-6.875 29.125-12.472656 44.640626-16.652344 21.273437-5.726562 43.65625-8.789062 66.757812-8.789062 23.09375 0 45.464844 3.050781 66.738281 8.796875 15.527344 4.171875 30.457031 9.769531 44.660157 16.644531l.007812.011719c33.4375 16.175781 62.800781 39.402344 86.183594 67.773437zm0 0" fill="#eb927a"/><path d="m453.589844 93.226562c-27.21875 68.324219-88.847656 119.203126-163.472656 131.21875-.347657.0625-.703126.113282-1.046876.164063-91.960937-14.355469-164.363281-87.6875-177.382812-180.074219 13.5-9.238281 27.933594-17.210937 43.125-23.753906 14.597656-6.300781 29.914062-11.273438 45.777344-14.761719 17.835937-3.941406 36.382812-6.019531 55.410156-6.019531s37.5625 2.078125 55.410156 6.019531c15.863282 3.488281 31.179688 8.460938 45.789063 14.761719 37.667969 16.230469 70.65625 41.234375 96.390625 72.445312zm0 0" fill="#f4c0a3"/><g fill="#eb927a"><path d="m400.710938 70.402344c0 14.628906-11.855469 26.484375-26.484376 26.484375-14.625 0-26.484374-11.855469-26.484374-26.484375 0-14.625 11.859374-26.480469 26.484374-26.480469 14.628907 0 26.484376 11.855469 26.484376 26.480469zm0 0"/><path d="m164.246094 70.402344c0 14.628906-11.855469 26.484375-26.484375 26.484375-14.625 0-26.484375-11.855469-26.484375-26.484375 0-14.625 11.859375-26.480469 26.484375-26.480469 14.628906 0 26.484375 11.855469 26.484375 26.480469zm0 0"/><path d="m280.121094 72.382812h-48.238282c-5.746093 0-10.402343-4.65625-10.402343-10.402343 0-5.746094 4.65625-10.40625 10.402343-10.40625h48.238282c5.746094 0 10.40625 4.660156 10.40625 10.40625 0 5.746093-4.660156 10.402343-10.40625 10.402343zm0 0"/></g><path d="m487.632812 365.148438c-12.257812 25.96875-28.746093 49.53125-48.578124 69.8125-17.792969 18.191406-38.273438 33.75-60.792969 46.015624-62.492188-132.679687 20.929687-308.496093 48.035156-416.121093 5.339844 4.765625 10.492187 9.75 15.402344 14.945312 4.128906 4.335938 8.085937 8.804688 11.890625 13.425781 9.445312 11.453126 17.921875 23.738282 25.285156 36.738282-8.796875 80.039062-1.417969 166.441406 8.757812 235.183594zm0 0" fill="#ffd073"/><path d="m439.054688 434.960938c-17.792969 18.191406-38.273438 33.75-60.792969 46.015624-62.492188-132.679687 20.929687-308.496093 48.035156-416.121093 5.339844 4.765625 10.492187 9.75 15.402344 14.945312-19.089844 51.03125-73.300781 221.652344-2.644531 355.160157zm0 0" fill="#ff9c40"/><path d="m137.5 482.984375c-24.273438-12.695313-46.257812-29.175781-65.160156-48.652344-17.710938-18.222656-32.707032-39.066406-44.390625-61.886719 11.035156-71.753906 19.425781-164.449218 9.113281-249.1875 6.394531-10.535156 13.53125-20.566406 21.335938-30.03125 4.042968-4.890624 8.246093-9.625 12.632812-14.199218 5.882812-6.144532 12.070312-11.996094 18.539062-17.535156 26.296876 107.832031 112.878907 287.191406 47.929688 421.492187zm0 0" fill="#ff9c40"/><path d="m137.5 482.984375c-24.273438-12.695313-46.257812-29.175781-65.160156-48.652344 22.828125-71.480469 50.101562-184.632812 23.320312-257.042969-13.25-35.832031-21.222656-68.503906-24.628906-98.261718 5.882812-6.144532 12.070312-11.996094 18.539062-17.535156 26.296876 107.832031 112.878907 287.191406 47.929688 421.492187zm0 0" fill="#ffd073"/><path d="m312.371094 127.6875c0 8.484375-2.296875 16.488281-6.363282 23.53125-9.394531 16.300781-28.273437 27.417969-50.019531 27.417969-21.742187 0-40.613281-11.117188-50.007812-27.417969-4.0625-7.042969-6.363281-15.046875-6.363281-23.53125 0-11.054688 3.898437-21.273438 10.511718-29.632812 6.707032-8.464844 16.226563-14.996094 27.3125-18.484376h.011719c3.050781 2.609376 10.199219 4.441407 18.535156 4.441407 8.339844 0 15.488281-1.832031 18.539063-4.441407h.007812c11.097656 3.488282 20.617188 10.019532 27.324219 18.484376 6.617187 8.359374 10.511719 18.578124 10.511719 29.632812zm0 0" fill="#eb927a"/><path d="m306.039062 127.6875c0 6.121094-2.035156 11.902344-5.652343 16.980469-8.335938 11.765625-25.097657 19.789062-44.398438 19.789062-19.296875 0-36.046875-8.023437-44.386719-19.789062-3.613281-5.078125-5.652343-10.859375-5.652343-16.980469 0-7.972656 3.457031-15.351562 9.332031-21.378906 9.078125-9.3125 23.925781-15.382813 40.707031-15.382813s31.640625 6.070313 40.722657 15.382813c5.871093 6.027344 9.328124 13.40625 9.328124 21.378906zm0 0" fill="#151a1c"/><path d="m296.710938 106.308594c-12.738282 1.378906-26.449219 2.121094-40.730469 2.121094-14.273438 0-27.972657-.742188-40.699219-2.121094 9.078125-9.3125 23.925781-15.382813 40.707031-15.382813s31.640625 6.070313 40.722657 15.382813zm0 0" fill="#fff"/><path d="m300.386719 144.667969c-8.335938 11.765625-25.097657 19.789062-44.398438 19.789062-19.296875 0-36.046875-8.023437-44.386719-19.789062 6.582032-8.421875 15.433594-13.574219 25.171876-13.574219 7.042968 0 13.625 2.707031 19.226562 7.375 5.589844-4.667969 12.171875-7.375 19.214844-7.375 9.730468 0 18.589844 5.152344 25.171875 13.574219zm0 0" fill="#f76cae"/><path d="m185.65625 21.265625-41.054688 4.175781c14.203126-6.875 29.125-12.472656 44.640626-16.652344l.625.625c4.148437 4.148438 1.621093 11.253907-4.210938 11.851563zm0 0" fill="#eb927a"/><path d="m367.398438 25.441406-41.066407-4.175781c-5.832031-.597656-8.359375-7.703125-4.210937-11.851563l.617187-.617187c15.527344 4.171875 30.457031 9.769531 44.660157 16.644531zm0 0" fill="#eb927a"/><path d="m343.585938 287.183594c0 40.394531-28.09375 74.21875-65.800782 83.011718-6.246094 1.457032-12.757812 2.230469-19.441406 2.230469-47.082031 0-85.246094-38.160156-85.246094-85.242187 0-47.082032 38.164063-85.246094 85.246094-85.246094 6.683594 0 13.195312.773438 19.441406 2.234375 37.707032 8.792969 65.800782 42.617187 65.800782 83.011719zm0 0" fill="#151a1c"/><path d="m343.585938 287.183594c0 40.394531-28.09375 74.21875-65.800782 83.011718-37.710937-8.792968-65.804687-42.617187-65.804687-83.011718 0-40.394532 28.09375-74.21875 65.804687-83.011719 37.707032 8.792969 65.800782 42.617187 65.800782 83.011719zm0 0" fill="#2f373b"/><path d="m355.109375 287.183594c0 4.273437-1.730469 8.136718-4.53125 10.9375-2.800781 2.800781-6.664063 4.53125-10.9375 4.53125h-162.59375c-8.539063 0-15.460937-6.925782-15.460937-15.46875 0-4.273438 1.726562-8.136719 4.527343-10.929688 2.796875-2.800781 6.660157-4.53125 10.933594-4.53125h162.59375c8.542969 0 15.46875 6.921875 15.46875 15.460938zm0 0" fill="#d8d4ce"/><path d="m355.109375 287.183594c0 4.273437-1.730469 8.136718-4.53125 10.9375-2.800781 2.800781-6.664063 4.53125-10.9375 4.53125h-112.863281c-8.535156 0-15.460938-6.925782-15.460938-15.46875 0-4.273438 1.730469-8.136719 4.53125-10.929688 2.792969-2.800781 6.65625-4.53125 10.929688-4.53125h112.863281c8.542969 0 15.46875 6.921875 15.46875 15.460938zm0 0" fill="#f2efea"/><path d="m308.828125 354.617188-3.757813 64.480468-2.363281 40.332032-2.851562 48.820312c-.472657.082031-.941407.15625-1.410157.238281-13.804687 2.308594-27.984374 3.511719-42.445312 3.511719-7.3125 0-14.566406-.304688-21.722656-.917969-5.851563-.492187-11.660156-1.183593-17.398438-2.070312l-2.894531-49.582031-2.359375-40.332032-3.761719-64.46875zm0 0" fill="#f2efea"/><path d="m240.523438 511.539062c-2.089844-.125-4.167969-.28125-6.246094-.457031-5.851563-.492187-11.660156-1.183593-17.398438-2.070312l-2.894531-49.582031-2.359375-40.332032-3.761719-64.46875h28.710938l1.621093 64.46875 1.023438 40.332032zm0 0" fill="#d8d4ce"/><path d="m318.457031 403.382812-12.71875 37.085938-94.390625-32.371094c-10.242187-3.511718-15.699218-14.660156-12.183594-24.902344.800782-2.335937 2.007813-4.421874 3.503907-6.207031 1.773437-2.132812 3.976562-3.839843 6.421875-5.042969 4.5-2.203124 9.847656-2.691406 14.976562-.933593zm0 0" fill="#eb927a"/><path d="m318.457031 403.382812-8.171875 23.828126-94.390625-32.371094c-7.90625-2.710938-12.953125-9.972656-13.226562-17.851563 1.773437-2.132812 3.976562-3.839843 6.421875-5.042969 4.5-2.199218 9.847656-2.6875 14.976562-.929687zm0 0" fill="#f4c0a3"/><path d="m318.457031 439.402344-12.71875 37.082031-94.390625-32.371094c-10.242187-3.511719-15.699218-14.65625-12.183594-24.898437.800782-2.339844 2.007813-4.421875 3.503907-6.207032 1.773437-2.136718 3.976562-3.839843 6.421875-5.046874 4.5-2.199219 9.847656-2.6875 14.976562-.929688zm0 0" fill="#eb927a"/><path d="m318.457031 439.402344-8.171875 23.824218-94.390625-32.371093c-7.90625-2.710938-12.953125-9.972657-13.226562-17.847657 1.773437-2.136718 3.976562-3.839843 6.421875-5.042968 4.5-2.203125 9.847656-2.691406 14.976562-.933594zm0 0" fill="#f4c0a3"/><path d="m318.453125 477.183594-10.09375 29.445312c-1.996094.417969-3.992187.804688-6.007813 1.171875h-.011718c-.835938.15625-1.648438.300781-2.484375.449219-.472657.082031-.941407.15625-1.410157.238281-2.195312.367188-4.402343.710938-6.625 1.015625l-80.480468-27.597656c-10.238282-3.519531-15.691406-14.660156-12.183594-24.910156.804688-2.328125 2.007812-4.417969 3.511719-6.207032 1.765625-2.128906 3.980469-3.832031 6.417969-5.035156 4.5-2.207031 9.851562-2.695312 14.980468-.941406zm0 0" fill="#eb927a"/><path d="m318.457031 477.1875-8.171875 23.828125-94.390625-32.371094c-7.90625-2.710937-12.953125-9.972656-13.226562-17.851562 1.773437-2.132813 3.976562-3.839844 6.421875-5.042969 4.5-2.203125 9.847656-2.6875 14.976562-.933594zm0 0" fill="#f4c0a3"/><path d="m302.339844 507.800781c-1.304688.25-2.589844.46875-3.894532.6875-13.804687 2.308594-27.984374 3.511719-42.445312 3.511719-7.3125 0-14.566406-.304688-21.722656-.917969-11.976563-1.003906-23.730469-2.832031-35.183594-5.433593-1.304688-3.929688-1.378906-8.296876.0625-12.507813.804688-2.339844 2.007812-4.421875 3.511719-6.207031 1.765625-2.132813 3.980469-3.847656 6.417969-5.046875 4.5-2.207031 9.851562-2.6875 14.980468-.929688zm0 0" fill="#eb927a"/><path d="m302.351562 507.800781c-1.304687.25-2.601562.46875-3.90625.6875-13.804687 2.308594-27.984374 3.511719-42.445312 3.511719-7.3125 0-14.566406-.304688-21.722656-.917969l-18.378906-6.300781c-7.910157-2.707031-12.957032-9.96875-13.230469-17.847656 1.765625-2.132813 3.980469-3.847656 6.417969-5.046875 4.5-2.207031 9.851562-2.6875 14.980468-.929688zm0 0" fill="#f4c0a3"/><path d="m338.066406 434.007812v64.542969c-12.777344 4.335938-26.019531 7.679688-39.621094 9.9375l-20.730468-119.074219 37.15625 12.402344c13.84375 4.617188 23.195312 17.59375 23.195312 32.191406zm0 0" fill="#f4c0a3"/><path d="m503.984375 319.832031c-3.71875 14.472657-8.671875 28.453125-14.742187 41.828125-9.5625-3.992187-15.933594-11.140625-15.933594-19.289062 0-11.878906 13.507812-21.609375 30.675781-22.539063zm0 0" fill="#2880a8"/><path d="m512 256c0 8.882812-.449219 17.667969-1.335938 26.320312l-51.035156 11.085938v66.445312c0 12.496094-14.953125 22.621094-33.394531 22.621094s-33.382813-10.125-33.382813-22.621094c0-12.484374 14.941407-22.621093 33.382813-22.621093 6.769531 0 13.050781 1.367187 18.316406 3.710937v-65.382812c0-4.929688 3.4375-9.203125 8.253907-10.25l59.175781-12.851563c.007812 1.179688.019531 2.363281.019531 3.542969zm0 0" fill="#2880a8"/><path d="m502.042969 116.753906v15.972656c0 3.480469-2.429688 6.492188-5.832031 7.234376l-44.789063 9.730468v69.914063c0 13.140625-15.734375 23.792969-35.136719 23.792969s-35.136718-10.652344-35.136718-23.792969c0-13.152344 15.734374-23.804688 35.136718-23.804688 7.121094 0 13.738282 1.4375 19.273438 3.898438v-71.714844c0-3.480469 2.425781-6.492187 5.832031-7.234375l51.671875-11.230469c4.617188-1.003906 8.980469 2.511719 8.980469 7.234375zm0 0" fill="#2880a8"/></svg>