<svg height="512pt" viewBox="0 0 512.00015 512" width="512pt" xmlns="http://www.w3.org/2000/svg"><path d="m255.125 1.746094c42.457031 0 82.472656 10.371094 117.691406 28.710937l.011719.007813c1.914063.992187 3.808594 2.011718 5.695313 3.0625 78.546874 43.488281 131.726562 127.199218 131.726562 223.34375 0 61.117187-21.492188 117.214844-57.324219 161.148437-.601562.738281-1.207031 1.46875-1.820312 2.195313-3.511719 4.21875-7.164063 8.320312-10.945313 12.296875-4.15625 4.386719-8.464844 8.613281-12.921875 12.683593-5.125 4.6875-10.445312 9.175782-15.945312 13.414063-34.71875 26.9375-76.566407 45.078125-122.242188 51.148437-8.640625 1.15625-17.417969 1.867188-26.324219 2.125-.113281 0-.226562.011719-.34375.011719-2.40625.074219-4.832031.105469-7.257812.105469-11.507812 0-22.824219-.761719-33.925781-2.242188-124.867188-16.585937-221.199219-123.488281-221.199219-252.886718 0-96.144532 53.179688-179.855469 131.726562-223.34375 1.886719-1.050782 3.78125-2.070313 5.699219-3.0625 35.214844-18.347656 75.246094-28.71875 117.699219-28.71875zm0 0" fill="#304b82"/><path d="m390.277344 40.414062c-5.425782 2.527344-10.902344 6.265626-16.460938 11.824219-32.335937 32.332031-2.882812 61.785157-35.214844 94.117188-32.339843 32.339843-61.792968 2.886719-94.125 35.21875-32.332031 32.332031-2.878906 61.785156-35.210937 94.117187-32.332031 32.332032-61.785156 2.878906-94.117187 35.210938-32.332032 32.332031-2.878907 61.785156-35.210938 94.117187-7.40625 7.410157-14.660156 11.570313-21.824219 13.976563-23.328125-28.273438-39.636719-60.402344-48.90625-94.058594 25.054688-30.417969.070313-58.523438 30.761719-89.214844 32.332031-32.332031 61.785156-2.878906 94.117188-35.210937 32.332031-32.332031 2.878906-61.785157 35.210937-94.117188s61.785156-2.878906 94.125-35.21875c23.402344-23.398437 14.441406-45.292969 19.964844-67.867187 37.347656 4.140625 73.957031 16.507812 106.890625 37.105468zm0 0" fill="#6783b8"/><path d="m465.652344 112.691406c23.082031 33.613282 37.210937 71.542969 42.375 110.429688-7.679688 23.90625 3.679687 46.933594-21.023438 71.636718-32.339844 32.339844-61.792968 2.886719-94.125 35.21875-32.332031 32.332032-2.878906 61.785157-35.210937 94.117188s-61.785157 2.878906-94.117188 35.210938c-18.070312 18.070312-16.847656 35.242187-17.894531 52.515624-28.796875-1.066406-57.449219-6.980468-84.632812-17.746093-5.855469-2.320313-11.632813-4.859375-17.339844-7.621094-.097656-.050781-.199219-.09375-.296875-.148437 3.234375-2.125 6.488281-4.777344 9.773437-8.0625 32.332032-32.332032 2.878906-61.785157 35.210938-94.117188 32.332031-32.332031 61.785156-2.878906 94.117187-35.210938 32.332031-32.332031 2.878907-61.785156 35.210938-94.117187s61.785156-2.878906 94.125-35.21875c32.332031-32.332031 2.878906-61.785156 35.210937-94.117187 6.296875-6.296876 12.488282-10.25 18.617188-12.769532zm0 0" fill="#6783b8"/><path d="m399.871094 232.671875c-1.613282-1.875-3.300782-3.707031-5.082032-5.488281-36.777343-36.777344-96.625-36.777344-133.402343 0l-153.765625 153.765625c-17.097656 17.097656-26.25 39.171875-27.4375 61.625 6.476562 6.101562 13.183594 11.808593 20.117187 17.109375 42.371094 32.4375 92.585938 49.785156 143.359375 52.054687l151.140625-151.136719c5.039063-5.042968 9.390625-10.519531 13.058594-16.320312 21.742187-34.40625 19.078125-79.910156-7.988281-111.609375zm-49.253906 83.742187-153.753907 153.765626c-12.421875 12.421874-32.632812 12.421874-45.058593-.011719-12.421876-12.414063-12.421876-32.625 0-45.046875l153.765624-153.753906c12.421876-12.421876 32.625-12.421876 45.046876 0 12.421874 12.425781 12.421874 32.625 0 45.046874zm0 0" fill="#ff9c40"/><path d="m425.25 86.75 73.195312 93.242188v.015624l4.867188 6.191407h-41.941406c-32.597656-19.019531-73.910156-13.679688-100.597656 13.003906l-260.476563 260.476563c-7.015625-5.367188-13.8125-11.148438-20.367187-17.347657-1.75-1.648437-3.488282-3.34375-5.203126-5.058593-8.136718-8.136719-15.605468-16.679688-22.40625-25.574219l260.46875-260.46875c13.34375-13.339844 21.347657-30.34375 23.644532-48.089844 2.289062-17.738281-1.121094-36.210937-10.632813-52.515625v-41.941406l6.191407 4.867187zm0 0" fill="#ffd073"/><path d="m425.25 86.75 73.195312 93.257812 4.867188 6.191407h-41.941406c-32.597656-19.019531-73.910156-13.679688-100.597656 13.003906l-260.476563 260.476563c-7.015625-5.367188-13.8125-11.148438-20.367187-17.347657l261.988281-261.984375c26.683593-26.6875 53.855469-46.171875 66.167969-47.4375l25.445312-16.492187zm0 0" fill="#ff9c40"/><path d="m183.753906 193.246094 15.339844-15.34375 47.808594 47.804687-15.34375 15.34375zm0 0" fill="#d8d4ce"/><path d="m220.652344 156.347656c2.28125 2.285156 3.425781 5.265625 3.417968 8.25 0 2.988282-1.140624 5.96875-3.417968 8.246094l-41.957032 41.957031c-4.550781 4.550781-11.933593 4.554688-16.492187 0-2.28125-2.285156-3.425781-5.265625-3.417969-8.25 0-2.988281 1.140625-5.96875 3.417969-8.246093l41.957031-41.957032c4.554688-4.558594 11.933594-4.558594 16.492188 0zm0 0" fill="#d8d4ce"/><path d="m220.652344 156.347656c2.28125 2.285156 3.425781 5.265625 3.417968 8.25 0 2.988282-1.140624 5.96875-3.417968 8.246094l-21.675782 21.675781c-4.558593 4.558594-11.9375 4.558594-16.496093 0-2.28125-2.28125-3.421875-5.265625-3.414063-8.246093 0-2.988282 1.140625-5.972657 3.414063-8.246094l21.679687-21.679688c4.554688-4.558594 11.933594-4.558594 16.492188 0zm0 0" fill="#f2efea"/><path d="m110.53125 244.375 15.339844-15.339844 47.808594 47.804688-15.34375 15.34375zm0 0" fill="#d8d4ce"/><path d="m147.429688 207.480469c2.28125 2.28125 3.421874 5.265625 3.417968 8.246093 0 2.992188-1.144531 5.972657-3.417968 8.25l-41.957032 41.957032c-4.550781 4.550781-11.933594 4.554687-16.492187 0-2.285157-2.285156-3.425781-5.265625-3.417969-8.25 0-2.988282 1.140625-5.972656 3.417969-8.246094l41.957031-41.957031c4.554688-4.558594 11.933594-4.558594 16.492188 0zm0 0" fill="#d8d4ce"/><path d="m147.429688 207.480469c2.28125 2.28125 3.421874 5.265625 3.417968 8.246093 0 2.992188-1.144531 5.972657-3.417968 8.25l-21.675782 21.675782c-4.558594 4.558594-11.9375 4.558594-16.496094 0-2.28125-2.28125-3.421874-5.265625-3.414062-8.246094 0-2.988281 1.140625-5.972656 3.414062-8.246094l21.679688-21.679687c4.554688-4.558594 11.933594-4.558594 16.492188 0zm0 0" fill="#f2efea"/><path d="m66.761719 324.964844 15.339843-15.34375 47.804688 47.808594-15.339844 15.339843zm0 0" fill="#d8d4ce"/><path d="m103.660156 288.070312c2.28125 2.28125 3.421875 5.265626 3.414063 8.246094 0 2.988282-1.140625 5.972656-3.414063 8.246094l-41.957031 41.957031c-4.550781 4.550781-11.9375 4.558594-16.492187 0-2.285157-2.28125-3.425782-5.265625-3.417969-8.246093 0-2.988282 1.140625-5.972657 3.417969-8.246094l41.953124-41.957032c4.558594-4.558593 11.9375-4.558593 16.496094 0zm0 0" fill="#d8d4ce"/><path d="m103.660156 288.070312c2.28125 2.28125 3.421875 5.265626 3.414063 8.246094 0 2.988282-1.140625 5.972656-3.414063 8.246094l-21.679687 21.679688c-4.554688 4.558593-11.933594 4.558593-16.492188 0-2.28125-2.285157-3.425781-5.265626-3.417969-8.246094 0-2.992188 1.140626-5.972656 3.417969-8.25l21.675781-21.675782c4.558594-4.558593 11.9375-4.558593 16.496094 0zm0 0" fill="#f2efea"/><path d="m367.742188 8.683594 135.574218 135.574218c8.984375 8.984376 11 22.296876 6.035156 33.222657-1.425781 3.167969-3.4375 6.121093-6.035156 8.71875-11.582031 11.582031-30.359375 11.582031-41.941406 0l-135.574219-135.574219c-5.796875-5.792969-8.691406-13.382812-8.691406-20.96875.007813-7.589844 2.902344-15.183594 8.691406-20.972656 2.597657-2.597656 5.550781-4.609375 8.71875-6.035156 10.925781-4.964844 24.238281-2.945313 33.222657 6.035156zm0 0" fill="#ff9c40"/><path d="m367.742188 8.683594 135.574218 135.574218c8.984375 8.984376 11 22.296876 6.035156 33.222657-10.917968 4.972656-24.238281 2.960937-33.230468-6.027344l-135.570313-135.574219c-5.796875-5.796875-8.691406-13.386718-8.683593-20.980468 0-4.179688.875-8.371094 2.652343-12.25 10.925781-4.964844 24.238281-2.945313 33.222657 6.035156zm0 0" fill="#ffd073"/><path d="m240.535156 190.496094 159.269532 159.269531c9.59375 9.59375 11.640624 23.863281 6.148437 35.453125-1.480469 3.160156-3.535156 6.113281-6.148437 8.726562-12.203126 12.203126-31.980469 12.203126-44.179688 0l-159.269531-159.269531zm0 0" fill="#ff9c40"/><path d="m240.535156 190.496094 159.269532 159.269531c9.59375 9.59375 11.640624 23.863281 6.148437 35.453125-11.589844 5.496094-25.859375 3.449219-35.457031-6.144531l-159.265625-159.269531zm0 0" fill="#ffd073"/><path d="m178.355469 252.679688 159.269531 159.265624c9.59375 9.59375 11.640625 23.863282 6.148438 35.453126-1.480469 3.160156-3.535157 6.113281-6.148438 8.726562-12.203125 12.203125-31.980469 12.203125-44.179688 0l-159.269531-159.269531zm0 0" fill="#ff9c40"/><path d="m178.355469 252.679688 159.269531 159.265624c9.59375 9.59375 11.640625 23.863282 6.148438 35.453126-11.589844 5.496093-25.859376 3.449218-35.457032-6.144532l-159.265625-159.269531zm0 0" fill="#ffd073"/><path d="m116.175781 314.859375 159.265625 159.269531c9.59375 9.59375 11.640625 23.863282 6.148438 35.453125-.175782.367188-.355469.734375-.542969 1.105469-12.421875 1.257812-24.925781 1.613281-37.386719 1.050781-6.933594-.308593-13.871094-.898437-20.753906-1.789062l-150.910156-150.910157zm0 0" fill="#ff9c40"/><path d="m116.175781 314.859375 159.265625 159.269531c9.59375 9.59375 11.640625 23.863282 6.148438 35.453125-1.113282.523438-2.246094.980469-3.386719 1.367188-5.464844.503906-10.949219.820312-16.4375.957031-5.734375-1.199219-11.183594-4.027344-15.628906-8.472656l-159.269531-159.269532zm0 0" fill="#ffd073"/><path d="m407.859375 344.28125c-11.695313-3.894531-20.703125-28.824219-20.703125-59 0-22.804688 5.144531-42.613281 12.714844-52.609375 27.066406 31.699219 29.730468 77.203125 7.988281 111.609375zm0 0" fill="#ffd073"/><g fill="#f2efea"><path d="m450.921875 276.976562 25.484375-8.757812c7.652344-2.628906 7.652344-13.453125 0-16.082031l-25.484375-8.757813c-2.480469-.851562-4.425781-2.800781-5.277344-5.28125l-8.757812-25.480468c-2.628907-7.65625-13.453125-7.65625-16.085938 0l-8.757812 25.480468c-.851563 2.480469-2.796875 4.429688-5.277344 5.28125l-25.484375 8.757813c-7.652344 2.628906-7.652344 13.453125 0 16.082031l25.484375 8.757812c2.480469.851563 4.425781 2.796876 5.277344 5.277344l8.757812 25.484375c2.632813 7.652344 13.457031 7.652344 16.085938 0l8.757812-25.484375c.851563-2.480468 2.800781-4.425781 5.277344-5.277344zm0 0"/><path d="m138.191406 409.960938 25.484375-8.757813c7.652344-2.628906 7.652344-13.453125 0-16.085937l-25.484375-8.757813c-2.480468-.851563-4.425781-2.796875-5.277344-5.277344l-8.757812-25.484375c-2.628906-7.652344-13.453125-7.652344-16.082031 0l-8.757813 25.484375c-.851562 2.480469-2.800781 4.425781-5.28125 5.277344l-25.480468 8.757813c-7.65625 2.632812-7.65625 13.457031 0 16.085937l25.480468 8.757813c2.480469.851562 4.429688 2.796874 5.28125 5.277343l8.757813 25.484375c2.628906 7.652344 13.453125 7.652344 16.082031 0l8.757812-25.484375c.851563-2.480469 2.800782-4.425781 5.277344-5.277343zm0 0"/></g></svg>